<svg width="114" height="28" viewBox="0 0 114 28" fill="none" xmlns="http://www.w3.org/2000/svg">
<path d="M1 1H113V23H94.848V24H114V0H0V24H18.24V23H1V1Z" fill="white"/>
<path d="M1 1H113V23H94.848V24H114V0H0V24H18.24V23H1V1Z" fill="white" fill-opacity="0.2"/>
<path d="M20.8117 16.168C22.1697 16.168 23.0377 15.594 23.7657 14.768L23.0797 14.124C22.5057 14.74 21.8057 15.202 20.8677 15.202C19.3557 15.202 18.2077 13.956 18.2077 12.388V12.36C18.2077 10.792 19.3277 9.56 20.7977 9.56C21.7917 9.56 22.4217 10.05 22.9957 10.652L23.7097 9.896C23.0237 9.168 22.1837 8.608 20.8117 8.608C18.6837 8.608 17.1017 10.33 17.1017 12.388V12.416C17.1017 14.446 18.6837 16.168 20.8117 16.168Z" fill="white"/>
<path d="M20.8117 16.168C22.1697 16.168 23.0377 15.594 23.7657 14.768L23.0797 14.124C22.5057 14.74 21.8057 15.202 20.8677 15.202C19.3557 15.202 18.2077 13.956 18.2077 12.388V12.36C18.2077 10.792 19.3277 9.56 20.7977 9.56C21.7917 9.56 22.4217 10.05 22.9957 10.652L23.7097 9.896C23.0237 9.168 22.1837 8.608 20.8117 8.608C18.6837 8.608 17.1017 10.33 17.1017 12.388V12.416C17.1017 14.446 18.6837 16.168 20.8117 16.168Z" fill="white" fill-opacity="0.2"/>
<path d="M28.6467 16.168C30.8307 16.168 32.4407 14.446 32.4407 12.388V12.36C32.4407 10.316 30.8587 8.608 28.6747 8.608C26.4767 8.608 24.8947 10.33 24.8947 12.388V12.416C24.8947 14.46 26.4767 16.168 28.6467 16.168ZM28.6747 15.202C27.1487 15.202 26.0007 13.942 26.0007 12.388V12.36C26.0007 10.834 27.0787 9.56 28.6467 9.56C30.1727 9.56 31.3347 10.834 31.3347 12.388V12.416C31.3347 13.928 30.2427 15.202 28.6747 15.202Z" fill="white"/>
<path d="M28.6467 16.168C30.8307 16.168 32.4407 14.446 32.4407 12.388V12.36C32.4407 10.316 30.8587 8.608 28.6747 8.608C26.4767 8.608 24.8947 10.33 24.8947 12.388V12.416C24.8947 14.46 26.4767 16.168 28.6467 16.168ZM28.6747 15.202C27.1487 15.202 26.0007 13.942 26.0007 12.388V12.36C26.0007 10.834 27.0787 9.56 28.6467 9.56C30.1727 9.56 31.3347 10.834 31.3347 12.388V12.416C31.3347 13.928 30.2427 15.202 28.6747 15.202Z" fill="white" fill-opacity="0.2"/>
<path d="M34.3935 16H35.4715V11.856C35.4715 10.498 36.3955 9.588 37.6415 9.588C38.9295 9.588 39.6435 10.428 39.6435 11.772V16H40.7215V11.506C40.7215 9.784 39.6855 8.608 37.9495 8.608C36.7035 8.608 35.9615 9.238 35.4715 10.022V8.762H34.3935V16Z" fill="white"/>
<path d="M34.3935 16H35.4715V11.856C35.4715 10.498 36.3955 9.588 37.6415 9.588C38.9295 9.588 39.6435 10.428 39.6435 11.772V16H40.7215V11.506C40.7215 9.784 39.6855 8.608 37.9495 8.608C36.7035 8.608 35.9615 9.238 35.4715 10.022V8.762H34.3935V16Z" fill="white" fill-opacity="0.2"/>
<path d="M45.4424 16.126C45.9604 16.126 46.3664 16.028 46.7444 15.818V14.894C46.3664 15.076 46.0724 15.146 45.6944 15.146C44.9664 15.146 44.4764 14.838 44.4764 13.942V9.714H46.7724V8.762H44.4764V6.578H43.3984V8.762H42.3904V9.714H43.3984V14.082C43.3984 15.552 44.2664 16.126 45.4424 16.126Z" fill="white"/>
<path d="M45.4424 16.126C45.9604 16.126 46.3664 16.028 46.7444 15.818V14.894C46.3664 15.076 46.0724 15.146 45.6944 15.146C44.9664 15.146 44.4764 14.838 44.4764 13.942V9.714H46.7724V8.762H44.4764V6.578H43.3984V8.762H42.3904V9.714H43.3984V14.082C43.3984 15.552 44.2664 16.126 45.4424 16.126Z" fill="white" fill-opacity="0.2"/>
<path d="M50.8366 16.154C52.1246 16.154 52.9506 15.566 53.4546 14.908V16H54.4906V11.576C54.4906 10.666 54.2386 9.952 53.7486 9.462C53.2166 8.93 52.4326 8.664 51.4106 8.664C50.3466 8.664 49.5766 8.888 48.7786 9.266L49.1006 10.148C49.7726 9.826 50.4446 9.616 51.2986 9.616C52.6566 9.616 53.4546 10.288 53.4546 11.59V11.842C52.7966 11.66 52.1666 11.534 51.2286 11.534C49.3946 11.534 48.1346 12.36 48.1346 13.872V13.9C48.1346 15.398 49.4926 16.154 50.8366 16.154ZM51.0466 15.3C50.0806 15.3 49.2266 14.768 49.2266 13.858V13.83C49.2266 12.92 49.9826 12.332 51.3406 12.332C52.2366 12.332 52.9226 12.486 53.4686 12.64V13.34C53.4686 14.488 52.3906 15.3 51.0466 15.3Z" fill="white"/>
<path d="M50.8366 16.154C52.1246 16.154 52.9506 15.566 53.4546 14.908V16H54.4906V11.576C54.4906 10.666 54.2386 9.952 53.7486 9.462C53.2166 8.93 52.4326 8.664 51.4106 8.664C50.3466 8.664 49.5766 8.888 48.7786 9.266L49.1006 10.148C49.7726 9.826 50.4446 9.616 51.2986 9.616C52.6566 9.616 53.4546 10.288 53.4546 11.59V11.842C52.7966 11.66 52.1666 11.534 51.2286 11.534C49.3946 11.534 48.1346 12.36 48.1346 13.872V13.9C48.1346 15.398 49.4926 16.154 50.8366 16.154ZM51.0466 15.3C50.0806 15.3 49.2266 14.768 49.2266 13.858V13.83C49.2266 12.92 49.9826 12.332 51.3406 12.332C52.2366 12.332 52.9226 12.486 53.4686 12.64V13.34C53.4686 14.488 52.3906 15.3 51.0466 15.3Z" fill="white" fill-opacity="0.2"/>
<path d="M60.05 16.168C61.408 16.168 62.276 15.594 63.004 14.768L62.318 14.124C61.744 14.74 61.044 15.202 60.106 15.202C58.594 15.202 57.446 13.956 57.446 12.388V12.36C57.446 10.792 58.566 9.56 60.036 9.56C61.03 9.56 61.66 10.05 62.234 10.652L62.948 9.896C62.262 9.168 61.422 8.608 60.05 8.608C57.922 8.608 56.34 10.33 56.34 12.388V12.416C56.34 14.446 57.922 16.168 60.05 16.168Z" fill="white"/>
<path d="M60.05 16.168C61.408 16.168 62.276 15.594 63.004 14.768L62.318 14.124C61.744 14.74 61.044 15.202 60.106 15.202C58.594 15.202 57.446 13.956 57.446 12.388V12.36C57.446 10.792 58.566 9.56 60.036 9.56C61.03 9.56 61.66 10.05 62.234 10.652L62.948 9.896C62.262 9.168 61.422 8.608 60.05 8.608C57.922 8.608 56.34 10.33 56.34 12.388V12.416C56.34 14.446 57.922 16.168 60.05 16.168Z" fill="white" fill-opacity="0.2"/>
<path d="M67.208 16.126C67.726 16.126 68.132 16.028 68.51 15.818V14.894C68.132 15.076 67.838 15.146 67.46 15.146C66.732 15.146 66.242 14.838 66.242 13.942V9.714H68.538V8.762H66.242V6.578H65.164V8.762H64.156V9.714H65.164V14.082C65.164 15.552 66.032 16.126 67.208 16.126Z" fill="white"/>
<path d="M67.208 16.126C67.726 16.126 68.132 16.028 68.51 15.818V14.894C68.132 15.076 67.838 15.146 67.46 15.146C66.732 15.146 66.242 14.838 66.242 13.942V9.714H68.538V8.762H66.242V6.578H65.164V8.762H64.156V9.714H65.164V14.082C65.164 15.552 66.032 16.126 67.208 16.126Z" fill="white" fill-opacity="0.2"/>
<path d="M72.6022 16.154C73.8902 16.154 74.7162 15.566 75.2202 14.908V16H76.2562V11.576C76.2562 10.666 76.0042 9.952 75.5142 9.462C74.9822 8.93 74.1982 8.664 73.1762 8.664C72.1122 8.664 71.3422 8.888 70.5442 9.266L70.8662 10.148C71.5382 9.826 72.2102 9.616 73.0642 9.616C74.4222 9.616 75.2202 10.288 75.2202 11.59V11.842C74.5622 11.66 73.9322 11.534 72.9942 11.534C71.1602 11.534 69.9002 12.36 69.9002 13.872V13.9C69.9002 15.398 71.2582 16.154 72.6022 16.154ZM72.8122 15.3C71.8462 15.3 70.9922 14.768 70.9922 13.858V13.83C70.9922 12.92 71.7482 12.332 73.1062 12.332C74.0022 12.332 74.6882 12.486 75.2342 12.64V13.34C75.2342 14.488 74.1562 15.3 72.8122 15.3Z" fill="white"/>
<path d="M72.6022 16.154C73.8902 16.154 74.7162 15.566 75.2202 14.908V16H76.2562V11.576C76.2562 10.666 76.0042 9.952 75.5142 9.462C74.9822 8.93 74.1982 8.664 73.1762 8.664C72.1122 8.664 71.3422 8.888 70.5442 9.266L70.8662 10.148C71.5382 9.826 72.2102 9.616 73.0642 9.616C74.4222 9.616 75.2202 10.288 75.2202 11.59V11.842C74.5622 11.66 73.9322 11.534 72.9942 11.534C71.1602 11.534 69.9002 12.36 69.9002 13.872V13.9C69.9002 15.398 71.2582 16.154 72.6022 16.154ZM72.8122 15.3C71.8462 15.3 70.9922 14.768 70.9922 13.858V13.83C70.9922 12.92 71.7482 12.332 73.1062 12.332C74.0022 12.332 74.6882 12.486 75.2342 12.64V13.34C75.2342 14.488 74.1562 15.3 72.8122 15.3Z" fill="white" fill-opacity="0.2"/>
<path d="M78.5536 16H79.6316V11.856C79.6316 10.498 80.5556 9.588 81.8016 9.588C83.0896 9.588 83.8036 10.428 83.8036 11.772V16H84.8816V11.506C84.8816 9.784 83.8456 8.608 82.1096 8.608C80.8636 8.608 80.1216 9.238 79.6316 10.022V8.762H78.5536V16Z" fill="white"/>
<path d="M78.5536 16H79.6316V11.856C79.6316 10.498 80.5556 9.588 81.8016 9.588C83.0896 9.588 83.8036 10.428 83.8036 11.772V16H84.8816V11.506C84.8816 9.784 83.8456 8.608 82.1096 8.608C80.8636 8.608 80.1216 9.238 79.6316 10.022V8.762H78.5536V16Z" fill="white" fill-opacity="0.2"/>
<path d="M90.4846 16.168C92.6686 16.168 94.2786 14.446 94.2786 12.388V12.36C94.2786 10.316 92.6966 8.608 90.5126 8.608C88.3146 8.608 86.7326 10.33 86.7326 12.388V12.416C86.7326 14.46 88.3146 16.168 90.4846 16.168ZM90.5126 15.202C88.9866 15.202 87.8386 13.942 87.8386 12.388V12.36C87.8386 10.834 88.9166 9.56 90.4846 9.56C92.0106 9.56 93.1726 10.834 93.1726 12.388V12.416C93.1726 13.928 92.0806 15.202 90.5126 15.202Z" fill="white"/>
<path d="M90.4846 16.168C92.6686 16.168 94.2786 14.446 94.2786 12.388V12.36C94.2786 10.316 92.6966 8.608 90.5126 8.608C88.3146 8.608 86.7326 10.33 86.7326 12.388V12.416C86.7326 14.46 88.3146 16.168 90.4846 16.168ZM90.5126 15.202C88.9866 15.202 87.8386 13.942 87.8386 12.388V12.36C87.8386 10.834 88.9166 9.56 90.4846 9.56C92.0106 9.56 93.1726 10.834 93.1726 12.388V12.416C93.1726 13.928 92.0806 15.202 90.5126 15.202Z" fill="white" fill-opacity="0.2"/>
<path d="M98.6253 16.14C100.067 16.14 101.201 15.342 101.201 13.97V13.942C101.201 12.64 99.9973 12.206 98.8773 11.87C97.9113 11.576 97.0153 11.31 97.0153 10.624V10.596C97.0153 9.994 97.5613 9.546 98.4153 9.546C99.1293 9.546 99.8853 9.812 100.557 10.246L101.047 9.434C100.305 8.944 99.3393 8.636 98.4433 8.636C97.0153 8.636 95.9793 9.462 95.9793 10.708V10.736C95.9793 12.08 97.2533 12.444 98.3733 12.78C99.3253 13.046 100.179 13.34 100.179 14.054V14.082C100.179 14.796 99.5633 15.23 98.6813 15.23C97.8273 15.23 96.9593 14.908 96.1753 14.306L95.6293 15.076C96.4553 15.734 97.5753 16.14 98.6253 16.14Z" fill="white"/>
<path d="M98.6253 16.14C100.067 16.14 101.201 15.342 101.201 13.97V13.942C101.201 12.64 99.9973 12.206 98.8773 11.87C97.9113 11.576 97.0153 11.31 97.0153 10.624V10.596C97.0153 9.994 97.5613 9.546 98.4153 9.546C99.1293 9.546 99.8853 9.812 100.557 10.246L101.047 9.434C100.305 8.944 99.3393 8.636 98.4433 8.636C97.0153 8.636 95.9793 9.462 95.9793 10.708V10.736C95.9793 12.08 97.2533 12.444 98.3733 12.78C99.3253 13.046 100.179 13.34 100.179 14.054V14.082C100.179 14.796 99.5633 15.23 98.6813 15.23C97.8273 15.23 96.9593 14.908 96.1753 14.306L95.6293 15.076C96.4553 15.734 97.5753 16.14 98.6253 16.14Z" fill="white" fill-opacity="0.2"/>
<path fill-rule="evenodd" clip-rule="evenodd" d="M69.4829 23.6315L58.248 27.7201C57.5585 28.0933 56.4408 28.0933 55.7514 27.7201L44.5171 23.6315C43.8276 23.2582 43.8276 22.6531 44.5171 22.2799C45.2065 21.9067 46.3242 21.9067 47.0136 22.2799L56.9997 25.6928L66.9864 22.2799C67.6758 21.9067 68.7935 21.9067 69.4829 22.2799C70.1724 22.6531 70.1724 23.2582 69.4829 23.6315Z" fill="white"/>
<path fill-rule="evenodd" clip-rule="evenodd" d="M69.4829 23.6315L58.248 27.7201C57.5585 28.0933 56.4408 28.0933 55.7514 27.7201L44.5171 23.6315C43.8276 23.2582 43.8276 22.6531 44.5171 22.2799C45.2065 21.9067 46.3242 21.9067 47.0136 22.2799L56.9997 25.6928L66.9864 22.2799C67.6758 21.9067 68.7935 21.9067 69.4829 22.2799C70.1724 22.6531 70.1724 23.2582 69.4829 23.6315Z" fill="white" fill-opacity="0.2"/>
</svg>
