<svg width="58" height="58" viewBox="0 0 58 58" fill="none" xmlns="http://www.w3.org/2000/svg">
<circle cx="28.9032" cy="28.9032" r="28.9032" fill="white"/>
<circle cx="28.9032" cy="28.9032" r="28.9032" stroke="white"/>
<path fill-rule="evenodd" clip-rule="evenodd" d="M27.5343 31.4657C27.3156 31.2471 27.019 31.1243 26.7098 31.1243C26.4006 31.1243 26.104 31.2471 25.8853 31.4657L16.3323 41.0188V34.563C16.3323 34.2537 16.2094 33.9571 15.9907 33.7384C15.772 33.5197 15.4754 33.3968 15.1661 33.3968C14.8569 33.3968 14.5603 33.5197 14.3416 33.7384C14.1229 33.9571 14 34.2537 14 34.563V43.8339C14 44.1431 14.1229 44.4397 14.3416 44.6584C14.5603 44.8771 14.8569 45 15.1661 45H24.437C24.7463 45 25.0429 44.8771 25.2616 44.6584C25.4803 44.4397 25.6031 44.1431 25.6031 43.8339C25.6031 43.5246 25.4803 43.228 25.2616 43.0093C25.0429 42.7906 24.7463 42.6677 24.437 42.6677H17.9812L27.5343 33.1146C27.7529 32.8959 27.8757 32.5994 27.8757 32.2902C27.8757 31.9809 27.7529 31.6844 27.5343 31.4657ZM31.4657 27.5343C31.6844 27.7529 31.981 27.8757 32.2902 27.8757C32.5994 27.8757 32.896 27.7529 33.1147 27.5343L42.6677 17.9812V24.437C42.6677 24.7463 42.7906 25.0429 43.0093 25.2616C43.228 25.4803 43.5246 25.6032 43.8339 25.6032C44.1431 25.6032 44.4397 25.4803 44.6584 25.2616C44.8771 25.0429 45 24.7463 45 24.437V15.1661C45 14.8569 44.8771 14.5603 44.6584 14.3416C44.4397 14.1229 44.1431 14 43.8339 14H34.563C34.2537 14 33.9571 14.1229 33.7384 14.3416C33.5197 14.5603 33.3969 14.8569 33.3969 15.1661C33.3969 15.4754 33.5197 15.772 33.7384 15.9907C33.9571 16.2094 34.2537 16.3323 34.563 16.3323H41.0188L31.4657 25.8854C31.2471 26.104 31.1243 26.4006 31.1243 26.7098C31.1243 27.019 31.2471 27.3156 31.4657 27.5343Z" fill="#0E9B53"/>
</svg>
