<svg width="243" height="199" viewBox="0 0 243 199" fill="none" xmlns="http://www.w3.org/2000/svg">
<ellipse cx="121.5" cy="99.5" rx="121.5" ry="99.5" fill="#E3E3E3" fill-opacity="0.6"/>
<path fill-rule="evenodd" clip-rule="evenodd" d="M121.5 8C183.082 8 233 48.7687 233 99.0755C233 149.37 183.082 190.151 121.5 190.151C59.918 190.151 10 149.382 10 99.0755C10 48.7814 59.918 8 121.5 8Z" fill="#17B255" fill-opacity="0.501961"/>
<path fill-rule="evenodd" clip-rule="evenodd" d="M121.501 11.4929C180.722 11.4929 228.724 50.6995 228.724 99.0758C228.724 147.439 180.722 186.659 121.501 186.659C62.2798 186.659 14.2783 147.452 14.2783 99.0758C14.2783 50.7122 62.2798 11.4929 121.501 11.4929V11.4929Z" fill="#0E9B53"/>
<path fill-rule="evenodd" clip-rule="evenodd" d="M121.5 36.9065C165.098 36.9065 200.433 64.7334 200.433 99.0756C200.433 133.405 165.098 161.245 121.5 161.245C77.9031 161.245 42.5684 133.418 42.5684 99.0756C42.5684 64.7461 77.9031 36.9065 121.5 36.9065V36.9065Z" fill="#ED3237"/>
<path fill-rule="evenodd" clip-rule="evenodd" d="M52.5564 113.16C52.3026 113.643 51.8583 113.986 51.1983 113.986C50.9445 113.986 50.5891 113.961 50.2845 113.884C49.9926 114.1 49.6118 114.202 49.2311 114.202C47.5811 114.177 44.8142 115.408 43.4308 116.221C42.5043 116.767 41.5524 117.695 41.895 118.863C42.06 119.447 42.517 119.917 43.05 120.197C50.0561 123.765 58.5471 125.683 66.3781 125.429C72.6607 125.226 80.0982 124.4 85.8858 121.683C87.0408 121.149 88.5892 120.667 89.8584 120.501C92.3715 120.171 95.1003 119.511 97.5372 118.876C102.03 117.707 106.574 116.64 111.092 115.574L111.46 115.485L112.628 116.704L116.321 119.447C116.372 118.685 116.537 117.898 116.753 117.263C117.07 116.31 117.4 115.142 117.527 114.126L117.578 113.656L118.035 113.554C118.428 113.465 118.847 113.338 119.241 113.224C121.081 112.703 122.909 112.144 124.749 111.586C131.209 109.617 137.631 107.394 144.028 105.248L144.257 105.172L144.485 105.261C145.564 105.693 146.884 106.061 147.988 106.404C149.968 107.026 152.418 107.407 154.613 107.623C154.271 106.874 153.979 106.061 153.814 105.375C153.56 104.308 153.75 102.898 154.131 101.87L154.22 101.616L155.02 101.247H155.147C155.654 101.235 157.939 101.882 158.434 102.009C160.68 102.568 162.978 103.025 165.262 103.47C165.021 102.556 164.551 101.463 164.196 100.587L163.803 99.6471L166.189 99.736L166.379 99.9646C167.293 101.108 168.232 102.225 169.159 103.356C170.694 105.223 172.319 108.207 172.763 110.62L172.954 111.675L171.926 111.37C170.834 111.039 169.412 110.874 168.283 110.747C164.628 110.354 160.833 110.43 157.177 110.735C151.631 111.192 144.841 112.779 139.421 114.9C139.611 115.002 139.776 115.091 139.865 115.142C141.211 115.878 142.366 117.009 143.368 118.177C143.8 118.685 145.12 118.901 145.767 118.977C147.544 119.181 148.42 121.708 149.131 123.105C149.346 123.537 150.095 125.086 150.527 125.34C150.704 125.442 150.984 125.518 151.174 125.594C152.088 125.937 152.735 125.556 152.773 126.991C152.799 127.779 152.71 128.401 153.585 128.731C155.07 129.29 155.185 130.09 156.048 131.221C156.923 132.376 157.304 133.71 157.012 135.145C156.974 135.323 156.923 135.475 156.873 135.64C157.304 135.64 157.723 135.78 157.952 136.187C158.104 136.466 158.078 136.631 158.078 136.822C159.601 136.72 159.906 137.584 159.957 138.93C159.97 139.285 161.213 139.654 161.543 140.352C161.962 141.241 162.013 141.953 161.95 142.931C161.886 143.883 162.051 143.997 162.622 144.759C163.409 145.839 163.269 145.648 163.117 146.766C163.016 147.465 163.13 147.528 163.612 148.1C164.475 149.128 164.463 149.154 164.45 150.5C164.45 150.614 164.45 150.932 164.475 151.135H164.488C165.529 151.326 165.389 152.062 165.491 152.977C165.567 153.637 165.516 154.399 165.414 155.123C166.011 154.831 166.62 154.564 167.166 154.31C171.621 152.24 176.723 145.344 179.198 141.33C181.876 137.012 184.668 130.687 185.582 125.594L185.62 125.417L190.088 120.324L192.728 124.312C193.096 122.953 193.35 121.238 193.502 120.184C193.857 117.707 193.286 114.443 192.322 112.106L192.207 111.827L192.347 111.56C192.588 111.09 192.855 110.62 193.121 110.163C193.857 108.817 193.832 103.419 193.743 101.895C193.426 96.0783 191.954 90.2614 189.517 84.978C187.016 79.5549 183.221 74.7922 178.728 70.8931C176.85 69.2674 174.439 67.4005 172.243 66.2193L171.672 65.9145L171.976 65.343C172.471 64.3904 173.702 63.8951 174.718 63.857C175.327 63.8316 175.924 63.8189 176.533 63.8062C174.02 60.466 171.367 55.8938 170.402 52.0709C169.298 47.6892 169.831 41.0977 171.354 36.8557C171.443 36.6017 171.964 35.0014 171.748 34.7601C170.402 34.6077 160.465 38.8751 159.068 39.4847C156.67 40.5134 154.347 41.8597 152.151 43.2567C147.849 45.9874 143.406 49.3149 139.548 52.6678L139.307 52.8711L139.002 52.8202C130.283 51.2454 120.104 52.0836 111.435 53.6331C87.1804 57.964 72.2545 67.4386 55.0314 84.6732C50.9318 88.7755 47.0988 93.0047 44.0527 97.958C42.9739 99.7233 43.2404 100.485 41.3239 101.933C39.6993 103.165 40.2831 105.146 40.8416 106.798C41.4635 108.626 43.2658 108.004 44.7127 107.674C45.1569 107.572 46.0073 107.394 46.7053 107.458C46.9465 107.191 47.3019 107.001 47.6065 106.874C48.1903 106.645 48.9138 106.62 49.5611 106.759C50.1322 106.328 51.0968 106.074 51.5791 105.959C52.1503 105.82 52.9625 105.68 53.4956 106.061C54.3841 105.489 55.501 104.918 56.4021 104.765C57.0875 104.651 57.7602 104.829 58.1536 105.273C58.839 104.854 59.6386 104.55 60.362 104.499C60.9586 104.448 61.5932 104.613 62.012 104.994C62.4816 104.753 63.0654 104.664 63.5477 104.689C64.322 104.727 65.3754 104.88 66.0989 105.172L67.2665 105.629L66.2385 106.315C65.3246 106.937 64.4108 107.572 63.4716 108.169C63.0655 108.423 62.6212 108.55 62.1643 108.563L62.4435 109.046L61.8597 109.363C60.5651 110.049 59.2578 110.722 57.9505 111.382C56.8336 111.941 55.2471 112.818 54.0794 113.186C53.5591 113.351 53.0387 113.326 52.6072 113.135L52.5564 113.16Z" fill="#FFF212"/>
<path fill-rule="evenodd" clip-rule="evenodd" d="M89.9225 121.15C89.9225 121.15 87.9933 121.416 86.1403 122.28C84.2999 123.144 78.6139 125.684 66.3787 126.077C54.1435 126.484 44.561 121.696 42.7333 120.769C40.9184 119.841 40.2076 117.314 43.076 115.638C45.9444 113.974 48.4067 113.529 49.219 113.529C50.0186 113.542 50.0821 112.983 50.0821 112.983C50.0821 112.983 50.0948 113.313 51.1863 113.313C52.2778 113.313 52.1636 111.789 52.1636 111.789C52.1636 111.789 52.5316 112.983 53.8262 112.577C55.1335 112.17 61.4922 108.792 61.4922 108.792L60.7053 107.395C60.7053 107.395 61.8603 108.398 63.0788 107.624C64.2972 106.849 65.8329 105.782 65.8329 105.782C65.8329 105.782 64.8683 105.414 63.4849 105.337C62.1142 105.274 61.8096 106.036 61.8096 106.036C61.8096 106.036 61.7207 105.045 60.3753 105.147C59.03 105.249 57.7989 106.303 57.7989 106.303C57.7989 106.303 57.8496 105.172 56.4662 105.401C55.0827 105.63 53.2043 107.014 53.2043 107.014C53.2043 107.014 53.4962 106.163 51.6813 106.595C49.8663 107.027 49.7013 107.484 49.7013 107.484C49.7013 107.484 48.6732 107.128 47.7975 107.471C46.9217 107.814 47.0106 108.208 47.0106 108.208C47.0106 108.208 46.6552 107.878 44.8148 108.297C42.9618 108.716 40.9438 109.249 40.1822 106.988C39.408 104.728 39.0907 102.747 40.8803 101.388C42.6699 100.029 42.4541 99.2158 43.4441 97.5901C44.4341 95.9771 46.8963 91.7987 54.5116 84.1783C71.8871 66.804 86.8764 57.3167 111.258 52.9604C121.221 51.1823 131.223 50.7251 139.066 52.1476C139.066 52.1476 150.096 42.5841 158.752 38.8628C167.42 35.1289 171.228 33.8842 171.863 34.1128C172.497 34.3414 172.561 35.2559 171.913 37.0593C171.266 38.8628 169.489 45.9624 170.987 51.8936C172.485 57.8247 177.815 64.429 177.815 64.429C177.815 64.429 176.305 64.429 174.693 64.4925C173.081 64.5433 172.51 65.6228 172.51 65.6228C172.51 65.6228 184.187 71.8969 190.076 84.6736C195.965 97.4504 194.416 109.059 193.655 110.443C192.893 111.84 192.893 111.84 192.893 111.84C192.893 111.84 194.708 116.184 194.112 120.261C193.515 124.337 192.881 125.773 192.881 125.773L189.987 121.391L186.205 125.709C186.205 125.709 184.809 133.482 179.732 141.674C174.655 149.865 169.807 153.79 167.408 154.908C165.009 156.025 164.476 156.343 164.476 156.343C164.476 156.343 164.945 154.45 164.793 153.041C164.641 151.631 164.704 151.847 164.324 151.783C163.943 151.72 163.74 151.745 163.752 150.501C163.765 149.243 163.79 149.383 163.08 148.519C162.356 147.668 162.331 147.452 162.432 146.678C162.534 145.903 162.788 146.132 162.064 145.141C161.341 144.15 161.201 143.947 161.265 142.88C161.341 141.813 161.239 141.28 160.922 140.632C160.605 139.972 159.297 139.883 159.272 138.943C159.247 138.003 159.221 137.368 158.003 137.482C156.784 137.597 158.028 136.263 156.81 136.301C155.591 136.339 156.112 136.225 156.353 135.019C156.594 133.825 156.315 132.682 155.503 131.615C154.703 130.561 154.601 129.824 153.332 129.341C152.063 128.859 152.126 127.881 152.101 127.005C152.076 126.128 151.949 126.585 150.921 126.204C149.893 125.823 149.842 125.988 148.522 123.398C147.202 120.807 146.808 119.753 145.666 119.613C144.524 119.486 143.356 119.181 142.849 118.584C142.341 117.987 141.072 116.552 139.523 115.701C137.975 114.85 137.784 114.837 137.784 114.837C137.784 114.837 147.088 110.888 157.102 110.075C167.129 109.262 172.091 110.735 172.091 110.735C172.091 110.735 171.406 107.154 168.626 103.763C165.834 100.372 165.834 100.372 165.834 100.372L164.768 100.333C164.768 100.333 165.682 102.543 165.897 103.42C166.113 104.296 166.075 104.296 166.075 104.296C166.075 104.296 161.239 103.394 158.244 102.645C155.249 101.896 155.134 101.908 155.134 101.908L154.703 102.111C154.703 102.111 154.068 103.826 154.398 105.236C154.741 106.658 155.68 108.386 155.68 108.386C155.68 108.386 150.895 108.03 147.748 107.027C144.6 106.036 144.194 105.858 144.194 105.858C144.194 105.858 130.753 110.418 124.902 112.208C119.051 113.999 118.15 114.19 118.15 114.19C118.15 114.19 117.972 115.625 117.35 117.466C116.728 119.308 117.007 120.781 117.007 120.781L112.172 117.187L111.233 116.196C111.233 116.196 102.488 118.254 97.6901 119.486C92.8925 120.73 89.9225 121.124 89.9225 121.124V121.15ZM145.488 51.2839C145.488 51.2839 149.804 44.6416 158.46 40.5647C167.116 36.4878 168.715 36.2211 169.553 35.9036C170.403 35.5861 170.619 35.9417 170.403 36.6656C170.378 36.7545 170.314 36.9323 170.251 37.1863C169.134 37.5166 166.697 38.3548 161.76 40.4758C154.043 43.7906 146.923 51.2204 146.923 51.2204C146.923 51.2204 152.076 46.7753 158.396 43.4223C163.384 40.7679 168.042 39.4724 169.794 39.0533C169.616 39.8789 169.438 40.8822 169.312 42.038C168.372 42.1777 166.265 42.6603 161.722 44.2224C154.246 46.788 148.497 52.1603 148.497 52.1603C148.497 52.1603 153.205 48.4644 161.201 45.6195C166.151 43.8668 168.271 43.6128 169.159 43.6636C169.108 44.3622 169.083 45.0988 169.096 45.8608C167.979 45.9751 165.187 46.3942 161.138 48.0326C155.82 50.1917 151.682 54.0527 151.682 54.0527C160.567 48.7311 167.128 47.5246 169.134 47.2706C169.159 47.8802 169.21 48.5152 169.286 49.1503C168.245 49.2773 165.783 49.7091 161.95 51.0807C157.927 52.5159 154.779 54.9036 153.535 55.9323C149.195 54.548 146.542 53.2398 145.501 51.2712L145.488 51.2839ZM169.426 50.3568L169.451 50.5219C169.502 50.8521 169.565 51.1823 169.642 51.5126C165.161 52.5921 160.656 54.0908 157.089 57.0881C156.531 56.8722 155.998 56.6817 155.49 56.542L155.058 56.415C156.023 55.6783 158.168 54.2686 162.102 52.6048C166.278 50.8394 168.525 50.4457 169.438 50.3568H169.426ZM169.883 52.554C170.01 53.0366 170.149 53.5065 170.289 53.9638C169.692 54.1543 168.575 54.5226 166.545 55.1576C164.032 55.945 161.646 57.6723 160.465 58.6122C159.336 58.0533 158.206 57.5326 157.153 57.1262C157.698 56.796 158.904 56.1483 161.328 55.0941C164.349 53.7606 168.423 52.8588 169.883 52.5667V52.554ZM170.822 55.437C171.038 55.9831 171.253 56.4912 171.482 56.9992C170.847 57.0373 169.845 57.1897 168.436 57.6342C166.405 58.2819 164.463 59.6282 163.613 60.2759C163.13 60.0092 162.636 59.7298 162.128 59.4631C162.813 58.8916 163.955 58.066 165.479 57.3548C167.408 56.4658 169.756 55.7545 170.822 55.437V55.437ZM172.078 58.2311C172.205 58.4851 172.345 58.7392 172.472 58.9805C170.581 59.2599 167.56 60.5807 166.177 61.7492C165.809 61.5333 165.415 61.3047 165.022 61.0634C165.58 60.5426 166.621 59.679 167.928 59.1329C169.337 58.5486 171.165 58.3073 172.078 58.2184V58.2311ZM173.106 60.0854C173.322 60.441 173.538 60.7839 173.728 61.0888C173.056 61.0888 172.066 61.1777 170.822 61.5333C169.4 61.9397 168.55 62.5112 168.08 62.9303C167.839 62.7779 167.573 62.6128 167.306 62.4477C168.817 61.1142 171.076 60.1743 173.106 60.0981V60.0854ZM174.553 62.2953C174.998 62.9176 175.277 63.2478 175.277 63.2478C175.277 63.2478 172.675 63.2478 171.33 63.6924C169.984 64.1369 169.984 64.1369 169.984 64.1369C169.984 64.1369 169.73 63.9718 169.286 63.6797C169.794 63.3622 170.581 62.9303 171.558 62.6509C172.599 62.3461 173.779 62.2953 174.553 62.2953ZM120.587 98.7204L119.571 96.4978C119.571 96.4978 124.102 91.062 134.319 86.8581C144.537 82.6416 151.365 82.1081 153.98 82.1208C156.594 82.1335 159.754 82.7686 159.754 82.7686C159.754 82.7686 153.269 85.8548 146.39 91.4811C139.511 97.0948 135.068 105.147 135.068 105.147C135.068 105.147 130.791 105.553 127.161 104.779C123.531 104.004 122.046 103.432 122.046 103.432C122.046 103.432 126.692 103.331 130.334 103.305C133.977 103.28 134.814 103.191 134.814 103.191C134.814 103.191 135.018 102.861 135.398 102.289C134.814 102.264 133.863 102.238 132.428 102.238C129.623 102.213 126.349 101.718 126.349 101.718C126.349 101.718 127.961 101.451 130.931 101.426C133.063 101.4 135.043 101.413 135.995 101.426C136.249 101.07 136.528 100.664 136.845 100.219C135.779 99.9651 133.406 99.4952 130.842 99.673C127.39 99.927 122.77 101.261 122.77 101.261C122.77 101.261 128.303 98.8601 132.479 98.5426C135.424 98.3267 137.086 98.6696 137.822 98.8855C138.508 97.9838 139.295 97.0059 140.183 95.9644C139.104 95.8374 136.604 95.7485 132.796 96.8027C127.593 98.2378 123.366 99.6349 123.366 99.6349C123.366 99.6349 129.928 96.574 135.056 95.1643C138.724 94.1609 140.361 94.6563 141.008 95.0246C141.922 93.9958 142.937 92.9417 144.016 91.913C142.76 91.8241 140.031 91.913 135.436 93.4243C128.773 95.6088 122.44 98.8601 122.44 98.8601C122.44 98.8601 130.296 93.945 137.34 91.8113C142.15 90.3508 144.422 90.4524 145.374 90.6683C145.565 90.5032 145.755 90.3254 145.945 90.1603L148.865 87.6456C142.76 87.1757 130.69 92.5988 125.575 94.9865C133.114 90.4524 141.541 86.312 150.515 86.2358L153.294 83.8481C153.294 83.8481 131.514 84.2164 120.549 98.7331L120.587 98.7204ZM182.016 112.551C182.016 112.551 181.902 109.935 183.971 108.932C186.04 107.928 188.121 108.411 188.604 112.247C189.086 116.082 188.781 116.743 188.781 116.743L192.957 121.429C192.957 121.429 192.893 122.102 192.767 122.382C192.64 122.674 192.513 122.864 192.513 122.864L188.337 117.505C188.337 117.505 187.677 121.277 186.674 122.978C185.672 124.693 185.075 125.48 185.075 125.48C185.075 125.48 182.803 131.081 180.125 136.949C177.434 142.804 176.102 143.718 176.102 143.718L178.97 136.936C178.97 136.936 176.153 141.839 172.903 146.195C169.654 150.551 166.164 153.511 166.164 153.511L165.809 152.101C165.809 152.101 165.809 152.012 165.796 151.898C166.659 151.351 168.106 150.272 169.629 148.405C172.066 145.42 175.01 140.238 175.01 140.238C175.01 140.238 174.16 141.699 171.723 144.569C169.857 146.767 166.608 149.726 165.174 150.996C164.869 150.843 164.78 150.691 164.73 150.45C165.682 149.7 167.649 147.973 170.39 144.658C174.35 139.87 179.465 132.478 179.465 132.478C179.465 132.478 175.632 137.686 171.38 142.309C168.169 145.801 165.529 148.227 164.438 149.205C164.209 148.761 163.79 148.646 163.689 148.011C164.514 147.541 166.1 146.563 167.75 145.179C170.149 143.172 174.807 137.609 174.807 137.609C174.807 137.609 174.261 138.079 170.302 141.813C167.281 144.658 164.755 146.297 163.727 146.919C163.854 145.979 163.892 145.585 163.702 145.192C164.882 144.595 167.382 143.198 170.581 140.62C175.086 136.987 179.719 129.659 179.719 129.659C179.719 129.659 178.247 131.831 173.31 136.517C169.388 140.238 164.552 143.058 162.712 144.061C162.242 143.604 162.102 143.414 162.255 142.486C162.267 142.372 162.28 142.271 162.293 142.182C163.181 141.763 164.704 140.988 166.76 139.718C170.213 137.571 172.827 134.955 176.115 131.539C179.402 128.122 182.854 121.772 182.854 121.772C182.854 121.772 182.486 122.407 180.684 124.833C178.869 127.259 174.528 132.44 169.502 136.352C165.974 139.095 163.334 140.416 162.064 140.95C161.925 140.683 161.734 140.429 161.544 140.124C161.062 139.349 161.963 138.994 163.422 138.397C164.882 137.787 174.795 130.662 178.361 126.484C181.915 122.305 183.539 118.368 183.539 118.368C183.539 118.368 178.539 122.839 179.567 121.162C180.608 119.486 179.96 120.121 179.96 120.121C179.96 120.121 178.069 121.696 176.419 122.788C174.756 123.867 176.115 122.801 178.094 120.362C180.074 117.936 181.356 116.26 181.356 116.26C181.356 116.26 177.815 119.283 175.569 120.883C173.322 122.47 171.418 123.69 174.236 120.984C177.054 118.279 177.866 117.047 177.866 117.047C177.866 117.047 170.822 122.255 165.402 124.972C159.983 127.703 155.629 129.9 155.629 129.9C155.629 129.9 155.325 129.786 154.69 128.96L154.462 128.656C154.817 128.3 155.515 127.767 156.886 126.966C159.97 125.163 165.06 122.826 165.06 122.826C165.06 122.826 162.597 123.118 158.65 124.896C155.909 126.141 154.576 127.36 154.018 127.995C153.878 127.728 153.789 127.436 153.65 126.954C153.586 126.7 153.51 126.509 153.434 126.369C154.513 125.76 156.67 124.579 159.64 123.156C164.006 121.073 172.485 118.495 172.485 118.495C172.485 118.495 166.1 119.791 160.287 122.039C156.15 123.639 153.51 125.023 152.342 125.684L152.279 125.658C151.479 125.379 150.718 125.95 149.981 123.982C149.943 123.867 149.905 123.766 149.855 123.664C150.845 123.309 153.205 122.509 156.239 121.721C160.3 120.667 163.207 120.248 163.207 120.248C163.207 120.248 162.699 120.108 160.897 120.324C159.094 120.54 161.557 119.435 166.05 118.394C170.543 117.352 171.99 117.124 171.99 117.124C171.99 117.124 165.783 117.098 158.904 119.054C153.802 120.502 150.527 121.67 149.182 122.178C148.966 121.785 148.738 121.429 148.497 121.086C149.448 120.756 153.434 119.384 159.234 117.911C165.91 116.209 174.35 115.307 174.35 115.307C174.35 115.307 160.998 115.942 154.17 117.847C149.702 119.092 148.179 119.714 147.659 120.007L147.557 119.88C147.202 119.435 146.897 119.156 146.605 118.94C147.9 118.355 151.441 116.806 154.474 116.069C158.257 115.155 165.39 114.558 165.39 114.558C165.39 114.558 157.762 114.19 152.418 115.511C148.37 116.514 146.085 117.581 145.209 118.025L145.184 118.013C144.372 117.378 143.75 116.844 143.75 116.844C143.75 116.844 147.722 114.291 155.096 113.682C162.471 113.072 171.609 114.774 171.609 114.774C164.463 112.031 157.292 111.777 149.042 113.821C149.042 113.821 156.239 109.948 164.59 111.243C172.929 112.539 174.033 112.996 174.033 112.996C174.033 112.996 173.475 111.561 173.741 110.837C174.008 110.126 173.436 110.38 173.513 109.389C173.589 108.398 173.475 108.347 172.815 107.928C172.155 107.509 172.066 107.306 172.408 106.849C172.764 106.392 172.256 106.074 171.888 105.96C171.52 105.845 171.127 105.642 171.418 104.982C171.71 104.321 171.622 104.169 170.784 103.94C169.946 103.712 169.756 103.61 169.768 103.216C169.781 102.823 168.931 102.962 169.197 102.302C169.464 101.642 171.571 101.68 171.685 102.797C171.799 103.915 172.446 103.166 172.662 103.94C172.865 104.715 173.868 105.02 173.931 105.274C173.995 105.528 173.982 105.426 174.084 106.049C174.185 106.671 175.315 106.976 174.909 107.382C174.503 107.789 174.236 108.449 174.845 108.716C175.455 108.982 175.581 108.843 175.099 109.338C174.617 109.821 175.48 109.745 175.163 110.507C174.845 111.269 175.061 112.285 175.531 112.348C176 112.412 176.483 111.332 176.216 110.862C175.937 110.405 175.848 110.583 175.975 109.884C176.102 109.173 175.848 108.538 175.708 108.246C175.569 107.966 176.406 107.331 175.632 106.633C174.858 105.934 174.909 105.985 174.82 105.566C174.731 105.147 174.452 105.426 174.198 104.702C173.944 103.978 173.792 103.407 173.792 103.407C173.792 103.407 175.416 104.626 176.153 105.693C176.889 106.76 176.914 106.684 177.016 107.331C177.117 107.979 177.295 107.789 177.396 108.601C177.498 109.402 177.98 109.567 178.171 109.249C178.374 108.932 178.501 108.322 179.211 109.325C179.922 110.316 182.029 112.628 182.029 112.628L182.016 112.551ZM156.594 130.459C156.594 130.459 160.211 129.532 164.349 127.246C168.499 124.972 168.499 124.934 168.499 124.934C168.499 124.934 164.362 128.376 161.087 129.837C157.813 131.31 156.378 131.869 156.594 130.446V130.459ZM160.148 137.317C160.148 137.317 162.661 136.124 165.44 134.434C168.22 132.745 169.235 131.97 169.235 131.97C169.235 131.97 167.294 134.587 164.945 136.238C162.597 137.889 161.176 138.524 160.681 138.384C160.186 138.245 159.856 137.584 160.148 137.33V137.317ZM74.0574 107.179C74.0574 107.179 68.0033 103.94 62.3934 103.902C56.7835 103.864 51.9986 105.312 49.6505 105.845C47.3025 106.379 42.5937 108.068 41.7941 107.103C40.9945 106.138 40.2838 104.182 41.9718 103.242C43.6599 102.315 44.9672 101.426 45.1195 100.473C45.2845 99.5079 46.0841 98.3775 47.0994 97.0059C48.1275 95.6342 49.3332 95.2151 49.714 95.4691C50.1074 95.7231 50.4501 95.7485 50.4501 95.7485C50.4501 95.7485 51.3894 94.2626 52.3032 94.0466C53.217 93.8307 53.8262 93.9958 53.8262 93.9958C53.8262 93.9958 53.2932 91.3668 58.205 88.3568C63.1168 85.3341 66.8864 86.8454 67.5591 87.8107C68.2317 88.7759 67.5464 90.9604 67.5464 90.9604C67.5464 90.9604 69.4248 89.5634 70.1609 89.1823C70.9098 88.814 70.8717 87.6456 70.8463 86.947C70.8209 86.2485 71.7602 86.2231 72.2932 86.6041C72.8263 86.9978 72.8897 86.9978 72.8897 86.9978C72.8897 86.9978 72.6867 86.0707 72.0775 85.3976C71.4682 84.7245 71.519 82.4384 72.8897 81.6382C74.2605 80.8381 75.7201 80.9016 76.4816 81.1175C77.2431 81.3207 77.497 80.0888 76.8878 79.1235C76.2785 78.1583 75.8597 76.6977 78.4362 76.7866C81.0127 76.8755 80.4415 75.6055 79.8831 74.8053C79.3373 74.0052 79.7181 73.1797 81.7107 73.6877C83.7161 74.2084 83.9953 74.0179 84.3761 73.0146C84.7568 72.0112 85.0868 71.7064 86.4068 71.0841C87.7268 70.4617 88.171 69.8521 88.7295 70.6523C89.2752 71.4524 88.4122 71.5921 91.7375 71.6048C95.0628 71.6175 95.5451 71.9477 97.6266 73.1035C99.7081 74.2592 103.579 76.5072 105.699 77.9805C107.806 79.441 108.313 79.4283 108.91 81.4096C109.506 83.3909 110.788 88.1536 109.709 90.3635C108.631 92.5607 107.768 95.1135 106.105 96.5614C104.442 98.0092 103.922 98.0346 103.922 98.0346C103.922 98.0346 105.788 98.3521 107.26 96.6376C108.745 94.9103 109.887 92.4972 109.887 92.4972C109.887 92.4972 110.573 93.5386 110.179 95.8501C109.786 98.1616 108.872 101.134 106.854 103.801C104.836 106.468 100.838 110.761 98.3374 112.704C95.8497 114.647 94.9105 115.231 94.9105 115.231C94.9105 115.231 102.5 111.129 106.232 106.747C109.963 102.378 110.331 100.473 110.268 99.6603C110.192 98.8601 110.903 98.4664 111.182 97.6536C111.474 96.8408 111.778 94.0847 111.423 92.5734C111.055 91.062 110.636 90.4397 111.106 89.8428C111.575 89.2458 111.854 88.0266 111.829 87.1249C111.804 86.2231 111.791 85.9183 111.791 85.9183C111.791 85.9183 114.482 89.9571 114.609 93.818C114.736 97.679 113.987 100.88 111.677 104.105C109.367 107.319 103.947 111.802 103.947 111.802C103.947 111.802 113.416 105.312 115.066 101.984C116.728 98.6569 117.579 92.7258 115.421 88.7251C113.276 84.7245 110.738 83.3909 111.867 83.048C112.997 82.7051 113.39 82.4257 113.174 81.8922C112.959 81.3588 112.476 81.2064 111.829 81.7017C111.169 82.197 110.484 81.816 110.369 81.181C110.243 80.546 109.57 79.7585 109.341 79.441C109.113 79.1235 109.24 78.6663 110.382 78.7044C111.524 78.7425 111.588 78.7425 111.588 78.7425C111.588 78.7425 111.309 78.0313 109.811 77.3581C108.326 76.685 107.679 77.4724 106.943 76.7739C106.194 76.0754 106.943 75.4404 107.882 74.9069C108.834 74.3735 109.189 75.0847 110.319 75.2245C111.448 75.3642 112.197 74.7799 112.197 74.7799C112.197 74.7799 111.753 74.8307 110.192 74.2465C108.618 73.6496 106.689 73.3321 105.445 73.6242C104.214 73.9036 103.3 74.2973 102.589 73.6115C101.878 72.9257 98.9339 71.554 100.406 71.3762C101.891 71.1984 102.945 70.0553 103.884 70.8936C104.823 71.7318 105.572 71.6302 106.371 70.665C107.184 69.6997 107.844 69.6489 108.986 69.6362C110.128 69.6235 111.156 70.2331 112.413 69.8013C113.657 69.3695 113.999 69.1282 114.342 69.1155C114.685 69.1028 113.847 67.693 112.184 67.5533C110.522 67.4136 110.243 70.2204 107.78 68.4424C105.318 66.6643 106.498 69.941 104.392 69.4203C102.297 68.8996 101.967 68.7091 101.574 69.5346C101.18 70.3601 99.797 70.6396 99.4289 69.7251C99.0481 68.8234 98.3247 68.5186 97.5505 69.2425C96.7763 69.9664 96.0909 70.1315 95.7736 69.5981C95.4563 69.0647 94.7582 69.0139 94.1236 69.052C93.4763 69.1028 93.2479 68.1884 92.9813 67.6295C92.7148 67.0707 90.2398 67.7438 89.6433 68.3535C89.0468 68.9631 88.1202 69.3187 87.2826 68.7599C86.4449 68.1884 85.1884 68.3789 84.9092 68.9377C84.6299 69.4965 83.3353 70.0807 83.8684 68.925C84.4015 67.7692 86.5845 66.4357 87.4476 67.2231C88.3106 68.0106 88.6279 67.7057 88.7422 66.6389C88.8564 65.572 89.2879 65.1275 90.316 65.4958C91.344 65.8642 91.6486 65.5466 92.0802 64.9624C92.5117 64.3782 93.8698 64.2639 94.2759 64.5179C94.6821 64.7719 95.1009 64.1623 95.1009 63.9972C95.1009 63.8194 93.5525 62.8033 92.5625 62.8668C91.5725 62.9303 91.7756 64.6322 90.1002 64.2385C88.4249 63.8448 88.1964 64.3528 87.7268 65.1148C87.2572 65.8769 86.4576 66.3214 85.3534 66.1055C84.2619 65.8896 83.9699 66.0293 83.5892 66.8548C83.2211 67.6803 82.2692 69.1155 81.7234 68.5567C81.165 67.9978 79.7054 68.0105 79.4642 69.0901C79.2231 70.1696 78.69 70.8047 78.2712 70.449C77.8524 70.0934 77.1543 70.195 76.9512 70.7285C76.7481 71.2746 76.2785 71.6175 75.4916 71.4651C74.7047 71.3 73.9813 71.1857 73.6767 72.062C73.372 72.9384 72.7501 74.0941 71.6713 74.2084C70.5925 74.3227 70.3513 74.0687 69.3233 75.2753C68.2952 76.4818 67.6479 76.9644 66.3787 77.2438C65.1222 77.5233 64.8557 78.044 64.2084 79.0981C63.5611 80.1523 62.3299 81.6763 62.3299 81.6763L58.4842 82.07C58.4842 82.07 66.5056 74.6021 69.336 72.8113C72.1663 71.0079 72.5344 71.3635 73.8163 70.5888C75.0982 69.814 74.7174 68.2392 77.3827 67.7819C80.0481 67.3247 80.9492 66.042 81.8884 65.1529C82.8403 64.2639 83.9572 64.9624 85.4422 64.302C86.9272 63.6416 87.143 62.9049 88.336 62.1302C89.5291 61.3555 91.4583 61.7873 92.7656 60.8855C94.0728 59.9838 93.9078 59.3234 96.4716 59.2345C99.0354 59.1456 98.8324 58.0152 100.47 57.8374C102.107 57.6596 102.729 57.558 104.15 57.0881C105.572 56.6182 106.232 56.5547 107.488 56.3896C108.745 56.2245 107.666 55.2465 110.116 55.5386C112.565 55.8307 111.436 55.8307 114.266 55.1449C117.109 54.4591 118.86 55.1576 119.939 54.7893C121.018 54.421 123.049 54.6877 124.102 54.7766C125.156 54.8655 125.867 54.675 128.303 54.6369C130.74 54.5988 132.39 54.3575 144.625 56.4785C156.861 58.5994 165.58 62.9811 169.616 65.3688C173.652 67.7565 178.729 71.3889 180.785 73.7258C182.841 76.05 183.616 77.3327 183.209 77.8027C182.803 78.2726 182.511 77.8662 181.966 77.32C181.42 76.7739 180.887 77.5995 181.674 78.2472C182.473 78.8949 183.654 78.3234 184.263 79.6823C184.872 81.0413 185.595 81.689 186.065 82.0192C186.535 82.3622 186.294 83.6322 184.047 81.8033C181.801 79.9745 182.219 78.8314 180.899 79.4791C179.579 80.1269 178.577 79.7331 177.511 78.1456C176.432 76.558 175.594 77.8535 173.678 76.3675C171.761 74.8815 171.33 74.5767 171.736 75.3388C172.155 76.1008 171.304 77.0406 173.322 77.4724C175.34 77.9043 175.886 77.32 176.711 78.5647C177.523 79.8093 178.501 80.3428 179.986 80.5333C181.471 80.7365 181.115 80.4571 182.384 81.7525C183.666 83.048 184.199 83.3909 185.126 83.6322C186.052 83.8862 186.141 83.6322 187.271 84.6229C188.4 85.6135 188.68 85.6643 188.743 86.4771C188.807 87.29 189.352 88.0266 189.708 88.1536C190.063 88.2806 190.533 88.3187 190.545 89.449C190.558 90.5921 190.647 90.427 191.04 91.062C191.434 91.697 191.675 91.8367 191.65 92.7639C191.637 93.691 191.599 94.1863 191.942 94.7071C192.284 95.2278 192.272 95.4818 191.535 95.7739C190.799 96.0533 190.05 96.9678 191.078 97.4504C192.107 97.933 192.678 98.0473 192.081 98.9363C191.485 99.8254 190.558 99.4825 190.038 98.7966C189.517 98.1108 189.263 98.4664 189.847 99.5206C190.431 100.587 191.002 99.9016 190.393 101.083C189.784 102.264 190.596 103.039 191.231 102.823C191.865 102.607 191.688 101.705 191.523 101.248C191.358 100.791 192.487 100.613 192.602 101.273C192.716 101.934 192.462 102.327 192.424 103.204C192.373 104.08 192.424 105.299 192.348 106.15C192.272 107.001 192.233 107.052 191.789 107.293C191.345 107.535 191.129 107.763 191.535 107.928C191.942 108.093 192.132 108.563 192.081 109.16C192.03 109.757 191.637 109.148 190.964 107.992C190.304 106.836 188.565 104.817 188.045 104.194C187.525 103.559 187.195 103.496 187.195 103.496C187.195 103.496 189.53 107.039 190.088 108.068C190.647 109.097 190.33 109.414 189.581 108.487C188.832 107.56 187.588 104.982 185.342 102.658C183.095 100.333 181.877 100.029 181.877 100.029C181.877 100.029 186.243 104.563 186.865 106.011C187.487 107.458 187.03 107.408 185.938 106.061C184.847 104.728 182.143 102.391 180.011 100.689C177.879 98.9872 177.168 98.6569 177.168 98.6569C177.168 98.6569 181.483 102.962 182.752 105.045C184.022 107.128 184.263 107.624 184.263 107.624C184.263 107.624 183.311 108.157 183.146 107.966C182.994 107.776 179.364 102.912 176.444 100.321C173.538 97.7171 172.967 97.7171 172.967 97.7171C172.967 97.7171 174.426 99.5206 177.409 102.772C180.392 106.023 182.118 108.589 182.118 108.589L181.267 109.897C181.267 109.897 177.473 104.055 174.046 101.172C170.619 98.2759 170.225 98.0473 170.225 98.0473C170.225 98.0473 170.885 97.2345 174.921 97.2599C178.958 97.2853 181.953 97.5774 181.953 97.5774C181.953 97.5774 179.135 96.4978 174.249 96.574C169.362 96.6503 166.989 98.0981 166.989 98.0981L168.652 98.8601L163.499 99.165L161.646 96.1168C161.646 96.1168 162.597 94.9992 164.933 94.8849C167.281 94.7833 168.664 94.5674 168.664 94.5674C168.664 94.5674 168.766 94.2626 165.77 94.415C162.775 94.5674 161.189 95.3802 161.189 95.3802L160.782 94.5166C160.782 94.5166 159.856 95.4818 158.396 95.8247C156.937 96.1676 155.16 96.0914 155.16 96.0914C155.16 96.0914 158.599 96.9297 159.462 96.9424C160.313 96.9424 160.757 96.9043 160.757 96.9043L161.354 97.9076C160.617 97.9711 159.297 98.0473 157.901 97.9584C155.807 97.8314 154.195 97.3361 154.195 97.3361C154.195 97.3361 157.774 98.5299 159.577 98.695C160.554 98.7839 161.366 98.7967 161.887 98.7839L162.242 99.3809C161.062 99.3174 158.384 99.1396 156.797 98.8729C154.716 98.5172 154.208 98.4029 154.208 98.4029C154.208 98.4029 158.193 99.6603 160.262 99.9905C161.328 100.168 162.179 100.283 162.75 100.359L162.483 101.108L152.901 98.9744L162.052 102.289L161.912 102.696C161.912 102.696 153.32 100.346 152.203 99.9397C151.098 99.5333 149.487 99.3555 149.487 99.3555L151.505 97.0948C151.505 97.0948 149.195 98.2632 147.951 98.7077C146.707 99.1396 146.136 99.3555 146.136 99.3555C146.136 99.3555 147.811 99.9524 148.636 100.206C149.461 100.46 150.261 100.714 150.261 100.714C150.261 100.714 133.444 107.611 123.76 110.634C114.076 113.644 102.31 117.098 97.9439 118.203C93.5778 119.308 90.0875 118.851 90.0875 118.851C90.0875 118.851 80.2258 122.978 70.5163 124.198C60.8069 125.43 53.2424 123.029 48.5082 121.785C43.7741 120.54 41.0199 118.216 44.3706 116.895C47.734 115.574 52.4936 114.241 57.8242 112.208C63.1676 110.176 68.0668 106.455 68.0668 106.455C68.0668 106.455 76.6974 109.008 77.662 109.465C78.6266 109.922 79.2358 110.062 78.6012 110.532C77.9793 111.002 74.9966 112.501 71.3667 113.605C67.7368 114.71 66.4929 114.749 66.4929 114.749C66.4929 114.749 73.3974 114.215 77.1162 112.386C80.835 110.557 79.5658 109.884 81 108.779C82.4342 107.674 84.7061 103.534 78.9312 101.375C73.169 99.2158 63.0153 99.9524 63.0153 99.9524C63.0153 99.9524 74.5397 100.092 77.3193 102.543C80.0989 104.995 79.8831 109.325 73.9686 107.204L74.0574 107.179ZM193.16 120.527L189.479 116.374L189.492 115.345L193.097 118.724C193.097 118.724 193.262 119.892 193.16 120.527ZM193.414 117.454L192.995 115.371L189.416 112.907L189.517 114.24L193.414 117.441V117.454ZM192.36 114.05L189.302 112.094L189.086 111.142L192.31 112.818L192.373 114.05H192.36ZM190.114 110.913C190.114 110.913 189.251 110.634 188.959 110.24C188.68 109.846 187.918 109.148 188.274 109.071C188.629 108.995 188.718 109.325 189.581 109.846C190.431 110.367 190.787 110.976 190.114 110.913ZM153.281 106.277C153.281 106.277 150.895 105.934 149.436 105.591C147.976 105.249 147.456 105.363 147.811 105.172C148.179 104.982 149.207 104.385 149.207 104.385C149.207 104.385 150.781 104.944 151.835 105.083C152.888 105.236 153.662 105.261 153.662 105.261L153.269 106.277H153.281ZM153.332 103.712L151.746 103.661C151.746 103.661 151.568 103.191 152.431 102.95C153.294 102.708 153.802 103.013 153.332 103.712V103.712ZM115.954 118.863L112.413 115.866L114.076 115.307L116.271 117.339L115.954 118.851V118.863ZM116.538 115.79L115.434 114.914L117.172 114.38L116.538 115.79ZM45.6018 101.616C45.8048 101.451 48.9652 98.6315 50.6024 98.6442C52.2524 98.6569 52.5063 98.7712 52.9251 98.06C53.3439 97.3488 53.6105 96.4597 51.9859 96.447C50.3613 96.4343 49.8282 96.2819 49.6886 96.3327C49.549 96.3835 50.5136 97.2599 49.8282 97.6028C49.1428 97.9457 46.2998 99.6857 45.6018 101.616ZM62.2919 100.245C62.2919 100.245 61.3399 100.232 60.6292 99.7873C59.9311 99.3428 60.02 98.8982 60.02 98.8982L47.9117 103.458C47.9117 103.458 58.6873 100.702 59.9692 100.638C61.2511 100.575 62.2919 100.245 62.2919 100.245ZM69.9325 93.1957C69.6279 93.2846 68.6125 93.5005 67.1275 94.072C65.6426 94.6436 65.2745 93.9831 63.0534 94.4912C60.8323 95.0119 57.0119 97.552 55.3239 98.441C53.6358 99.3301 53.3566 99.5968 53.3566 99.5968C53.3566 99.5968 54.4355 97.7679 55.5143 97.2345C56.5931 96.7011 56.8977 96.6376 56.8977 96.6376C56.8977 96.6376 54.9431 95.685 54.7274 94.7325C54.5116 93.7799 54.5243 93.3354 54.5243 93.3354C54.5243 93.3354 55.2985 94.6944 56.1743 95.2405C57.05 95.7866 57.5958 95.8755 58.1415 95.7739C58.6873 95.6723 61.3907 94.072 62.9138 93.6402C64.4368 93.1957 64.6399 92.3321 64.5637 90.8207C64.4876 89.3093 63.2057 88.4965 62.7615 88.2806C62.3172 88.0647 61.5303 87.9631 61.5303 87.9631C61.5303 87.9631 64.2591 87.6964 65.3506 89.2966C66.4422 90.8969 65.9472 93.1322 65.9472 93.1322C65.9472 93.1322 67.9779 93.2211 69.9325 93.2084V93.1957ZM60.8323 89.0934C60.8323 89.0934 62.7615 90.4143 62.2284 91.6589C61.708 92.9036 60.1596 93.7672 58.8269 94.3388C57.4942 94.9103 56.1108 94.2626 56.1235 92.6115C56.1362 90.9731 57.5577 90.0714 58.3319 89.6777C59.1061 89.2966 58.9031 89.4745 58.7508 90.046C58.5985 90.6175 58.5858 91.3795 59.4996 91.5827C60.4134 91.7732 60.9211 90.681 60.8196 90.1857C60.718 89.6904 60.8196 89.0934 60.8196 89.0934H60.8323ZM57.7481 90.8461C58.1415 90.8334 58.4715 91.1382 58.4842 91.5319C58.4969 91.9257 58.1923 92.2559 57.7989 92.2686C57.4054 92.2813 57.0754 91.9765 57.0627 91.5827C57.05 91.189 57.3546 90.8588 57.7481 90.8461ZM61.2384 122.572C61.2384 122.572 81.2792 119.791 88.6026 115.828C95.9259 111.853 98.6293 104.664 99.5812 105.566C100.546 106.468 100.546 106.544 99.9747 107.878C99.4162 109.224 93.9713 116.107 86.2799 118.444C78.5885 120.781 61.2257 122.572 61.2257 122.572H61.2384ZM87.3206 90.7191C87.3206 90.7191 83.6146 90.7953 79.3119 92.1289C75.0093 93.4624 73.3467 93.183 73.1817 93.9577C73.0167 94.7325 73.499 94.7833 75.6566 94.2626C77.8143 93.7418 82.2692 91.824 87.3333 90.7191H87.3206ZM84.4649 95.7739C84.4649 95.7739 90.1637 95.1135 92.2833 94.923C94.4028 94.7325 95.4182 94.3134 95.6847 93.8561C95.9513 93.3989 96.167 93.3608 96.9032 93.8815C97.6393 94.4023 97.7408 94.669 97.7408 94.669C97.7408 94.669 96.5351 95.0881 95.837 95.3548C95.1263 95.6215 89.4148 95.8755 84.4776 95.7739H84.4649ZM90.5698 102.162C90.5698 102.162 96.5351 101.121 98.1089 97.8441C99.6827 94.5674 99.3401 92.7893 99.6066 89.9698C99.7589 88.3314 100.051 87.0105 99.9874 85.7659C99.8477 85.7913 99.6827 85.804 99.4924 85.804C98.7055 85.7786 98.4516 85.8802 98.2739 86.2104C98.0962 86.5406 97.6266 87.1884 95.7482 87.3662C93.8698 87.544 91.5471 87.2011 91.5471 87.2011C91.5471 87.2011 93.3113 86.8581 95.469 86.693C97.6266 86.5279 97.7662 85.6897 97.2332 85.2198C96.7001 84.7499 97.5378 84.5593 98.2485 85.0039C98.6801 85.2706 99.3781 85.0928 99.8604 84.915C99.7335 84.318 99.4797 83.7338 99.0481 83.1369C98.5658 82.4765 97.6774 81.5112 96.6239 80.4698C96.5859 80.4825 96.5351 80.4952 96.4716 80.5079C95.5324 80.6603 95.2913 80.8889 94.4282 81.5874C93.5652 82.2859 93.7048 83.0226 91.5344 83.2004C89.3641 83.3782 81.99 86.4517 81.99 86.4517C81.99 86.4517 84.6934 85.0928 87.2953 83.8354C89.8971 82.5781 90.3541 82.0954 92.5244 81.435C94.7074 80.7746 94.4663 80.3428 94.8217 79.5172C94.9105 79.3013 95.0121 79.1489 95.1136 79.0346C93.1844 77.2184 91.1664 75.5166 90.3921 75.072C89.7448 74.7037 89.1864 74.4497 88.6787 74.2465C88.5264 74.6148 88.2599 75.1609 87.841 75.8468C87.016 77.1422 85.6834 76.9771 84.4269 78.1837C83.1703 79.3902 82.2692 80.2158 81.2411 80.9397C80.2131 81.6636 75.682 84.1656 75.682 84.1656C75.682 84.1656 80.8731 79.6315 82.3327 78.806C83.7923 77.9805 84.7949 76.4818 85.6834 75.9992C86.5718 75.5166 87.4476 74.4116 87.5237 74.2592L87.7014 73.9163C87.4603 73.8401 87.2191 73.7766 86.978 73.7131C85.9372 73.4337 85.8357 72.4049 86.8764 72.3541C87.9299 72.3033 90.1129 72.3541 93.2098 73.9798C96.3066 75.6055 99.2893 77.9805 101.13 79.5553C102.957 81.1175 103.516 82.6416 102.437 84.318C101.358 86.0072 99.6066 90.7445 100.99 92.8401C102.373 94.9357 101.802 96.0025 101.028 97.4885C100.254 98.9618 97.1697 101.362 95.2024 101.667C93.2352 101.972 90.5571 102.175 90.5571 102.175L90.5698 102.162ZM90.7983 77.8154C90.7983 77.8154 90.4429 78.5901 89.7702 78.8822C89.0975 79.1743 88.3106 79.1616 86.2672 80.6603C84.2238 82.1589 81.4569 84.1275 81.4569 84.1275C81.4569 84.1275 86.4068 80.9778 88.4883 80.546C90.5698 80.1142 91.014 79.3521 91.8136 78.7044C92.6132 78.044 92.4736 77.6757 91.8263 77.5741C91.179 77.4724 90.811 77.8281 90.811 77.8281L90.7983 77.8154ZM189.784 94.0085C189.784 94.0085 189.454 93.056 188.54 92.3829C187.626 91.7098 186.687 91.7986 186.332 91.3541C185.976 90.8969 186.217 90.2873 185.545 89.9698C184.872 89.6523 184.618 89.5507 183.565 89.4745C182.524 89.3983 182.879 89.2458 182.727 88.6235C182.575 88.0139 181.978 88.0139 181.217 87.9123C180.442 87.8107 179.668 87.4678 179.503 86.8835C179.338 86.2866 179.351 86.2485 178.945 85.9818C178.526 85.7151 179.034 84.9531 179.529 84.8515C180.011 84.7499 180.531 84.9912 180.912 85.9945C181.28 87.0105 181.75 87.3916 182.892 87.3789C184.047 87.3662 184.136 87.7599 184.479 88.433C184.821 89.1061 185.342 89.3474 186.255 89.3982C187.169 89.449 187.905 90.2238 188.312 90.9985C188.718 91.7732 189.581 91.4938 190.304 92.5353C191.015 93.5767 189.962 94.3388 189.797 93.9958L189.784 94.0085ZM182.346 93.4751C182.346 93.4751 180.937 93.5894 180.633 93.2719C180.328 92.9671 180.011 92.548 179.313 92.2559C178.602 91.9638 178.577 91.1001 179.084 91.189C179.592 91.2779 180.772 91.7733 180.925 92.0146C181.077 92.2686 180.519 92.6877 181.559 92.7766C182.6 92.8655 182.854 93.3862 182.346 93.4751ZM184.885 95.9898C184.796 95.8628 184.187 95.2278 183.92 94.8849C183.654 94.5293 184.415 93.9958 185.177 94.6563C185.938 95.304 186.078 96.2946 184.885 96.0025V95.9898ZM189.238 96.5868C189.238 96.5868 188.235 96.1549 187.779 95.4056C187.334 94.6563 187.956 94.2372 188.857 94.8468C189.771 95.4564 189.72 96.6757 189.238 96.5868ZM184.644 92.9417C184.644 92.9417 184.174 92.5734 183.108 92.0019C182.054 91.4176 181.674 91.4811 180.798 90.9477C179.922 90.4143 179.579 89.5761 179.998 89.4618C180.404 89.3474 181.267 89.7031 181.978 90.3381C182.689 90.9731 182.689 90.7826 183.717 91.2906C184.745 91.7987 185.456 93.0687 184.644 92.9417ZM177.561 88.4584C177.561 88.4584 175.988 88.9029 174.579 88.2425C173.17 87.5821 172.523 86.2485 171.723 85.4611C170.923 84.6737 170.72 84.5847 169.705 84.4831C168.69 84.3815 168.41 83.3528 167.687 83.1115C166.964 82.8702 166.976 82.7051 165.174 82.7686C163.384 82.8321 162.915 82.4511 162.851 81.9811C162.788 81.5112 163.651 81.3969 162.052 81.1048C160.452 80.8127 160.122 79.3902 161.087 79.6696C162.064 79.9491 163.638 79.4156 164.019 80.7619C164.387 82.1081 164.73 82.0319 165.77 81.9557C166.811 81.8922 167.801 82.0573 168.436 82.5908C169.07 83.1242 169.172 83.1369 170.289 83.3655C171.406 83.5941 171.19 83.5687 172.231 84.2926C173.271 85.0293 172.853 86.185 174.591 86.6295C176.343 87.0741 177.13 86.8581 177.587 87.4424C178.044 88.0266 177.549 88.4457 177.549 88.4457L177.561 88.4584ZM158.333 79.9999C158.333 79.9999 157.406 80.0126 156.708 79.8093C156.01 79.6061 155.49 79.5807 155.49 79.5807C155.49 79.5807 155.782 78.6663 157.241 78.806C158.701 78.9584 158.333 79.9999 158.333 79.9999ZM153.827 79.2251C153.827 79.2251 153.269 79.5299 152.685 79.6696C152.101 79.8093 152.355 79.7585 151.225 78.5266C150.096 77.2946 150.146 77.0025 151.847 77.4089C153.548 77.8154 154.754 78.679 153.827 79.2251V79.2251ZM146.542 78.7679C146.542 78.7679 142.785 79.0092 142.138 79.0346C141.49 79.06 142.442 78.2853 143.382 77.6884C144.321 77.1041 145.006 76.9898 145.78 77.6249C146.542 78.2726 146.555 78.7552 146.555 78.7552L146.542 78.7679ZM140.488 78.7298C140.12 78.8187 139.32 79.2251 137.048 79.314C134.776 79.4029 134.18 79.0092 133.418 80.1269C132.657 81.2445 130.842 81.054 129.979 80.3301C129.116 79.6061 128.557 77.9678 130.715 77.5105C132.873 77.0533 133.266 78.298 134.015 78.552C134.751 78.7933 135.246 77.7646 136.122 77.1676C136.997 76.5707 139.282 76.7866 139.688 77.2311C140.094 77.6757 140.501 78.7298 140.501 78.7298H140.488ZM127.187 80.292C127.187 80.292 124.432 80.2412 124.255 80.2793C124.077 80.3174 123.988 79.0854 125.181 78.9838C126.374 78.8822 127.516 79.8474 127.187 80.292ZM123.633 81.0921C123.633 81.0921 123.163 82.1208 122.503 81.8287C121.843 81.5239 119.762 80.8762 118.645 81.5493C117.515 82.2224 117.287 83.2512 116.259 83.4163C115.231 83.5814 115.192 82.6035 115.243 82.1335C115.307 81.6509 115.192 81.4477 114.774 81.7144C114.355 81.9811 114.697 80.419 115.142 80.038C115.586 79.6569 116.068 80.3428 116.589 80.9143C117.109 81.4985 117.541 81.689 118.404 80.7746C119.267 79.8601 120.79 79.695 121.437 80.292C122.084 80.8889 122.541 80.8508 122.884 80.7873C123.227 80.7238 123.645 81.1048 123.645 81.1048L123.633 81.0921ZM101.561 62.0667C101.561 62.0667 99.9874 61.1523 99.0481 61.9905C98.1089 62.8287 97.9947 63.4003 96.7382 63.2987C95.4817 63.197 94.8471 61.7746 96.9032 61.5841C98.9593 61.3936 98.8324 60.0219 100.368 60.441C101.917 60.8601 102.83 61.7238 101.561 62.054V62.0667ZM103.833 60.1489C103.833 60.1489 105.102 60.695 106.308 60.2378C107.514 59.7806 107.387 60.06 108.263 59.5774C109.138 59.0821 110.585 58.536 111.994 58.6503C113.403 58.7646 113.936 58.9932 112.743 59.6282C111.563 60.2505 110.712 59.1075 109.176 59.9203C107.641 60.7331 107.158 61.7238 105.128 61.7746C103.097 61.8254 102.716 60.0092 103.82 60.1616L103.833 60.1489ZM118.023 60.1743C117.617 60.0854 116.094 59.8695 115.154 59.3869C114.215 58.9043 114.291 57.5707 116.043 57.6088C117.794 57.6469 119.66 60.5807 118.036 60.1743H118.023ZM122.199 59.8187C122.199 59.8187 124.052 57.5834 125.219 58.32C126.4 59.0567 127.199 59.0186 127.91 58.4216C128.621 57.8247 128.329 57.5961 129.331 57.7739C130.334 57.9517 132.378 57.5961 132.378 57.5961C132.378 57.5961 130.753 55.4751 129.103 56.3388C127.466 57.2024 127.275 58.0152 125.308 57.2151C123.341 56.415 121.729 56.9103 121.082 57.7612C120.434 58.6122 122.186 59.8187 122.186 59.8187H122.199ZM145.869 59.1202C145.869 59.1202 144.829 59.1964 143.102 58.6249C141.376 58.0533 140.526 58.1041 139.815 58.7392C139.104 59.3742 136.68 59.044 135.804 58.066C134.929 57.1008 135.259 56.1737 136.68 57.1516C138.102 58.1295 138.533 57.9771 139.726 57.2913C140.919 56.6055 142.442 57.3802 143.039 57.7866C143.635 58.2057 143.052 57.6596 144.511 57.8501C145.971 58.0406 146.77 59.1837 145.882 59.1329L145.869 59.1202ZM150.984 60.5934C150.984 60.5934 148.992 59.6155 148.56 59.4377C148.128 59.2472 149.41 58.3454 150.68 58.8662C151.949 59.3742 152.126 60.7712 150.984 60.6061V60.5934ZM159.056 63.6543C159.056 63.6543 156.937 62.8668 155.261 62.0159C153.586 61.165 154.678 59.8949 156.873 60.7839C159.069 61.673 160.897 63.7559 159.044 63.6543H159.056ZM161.671 63.5019C161.671 63.5019 163.46 64.7846 164.552 64.8608C165.644 64.937 165.656 65.4831 166.583 66.423C167.509 67.3501 168.258 67.4009 169.337 67.6676C170.416 67.947 171.114 68.5313 171.71 69.2298C172.307 69.9283 173.145 70.6396 174.198 70.8301C175.251 71.0206 175.886 71.6175 177.206 72.8241C178.526 74.0433 178.793 74.2084 179.161 73.8655C179.529 73.5226 179.249 72.9511 178.374 72.2525C177.498 71.5413 176.165 70.5761 175.036 70.1823C173.906 69.7886 172.992 69.5727 172.65 68.7599C172.307 67.947 171.139 67.312 169.616 66.8675C168.093 66.423 168.08 66.0928 167.293 65.1656C166.507 64.2385 165.517 63.9845 164.362 63.667C163.207 63.3495 163.232 63.07 162.559 62.7398C161.887 62.4096 160.935 62.9811 161.684 63.5019H161.671ZM94.644 67.3628C94.9232 67.3882 97.7662 68.0486 97.7662 68.0486C97.7662 68.0486 97.1316 66.3722 99.3147 66.4992C101.498 66.6262 102.043 65.7626 102.78 65.2926C103.516 64.8227 103.985 64.5433 103.985 64.5433C103.985 64.5433 103.402 64.2512 102.234 63.921C101.066 63.5908 100.762 64.5814 100.203 65.1402C99.6447 65.6991 98.5785 65.2926 97.817 65.0767C97.0555 64.8608 93.4636 67.2612 94.6567 67.3628H94.644ZM105.102 63.8575C105.102 63.8575 106.384 64.4671 107.78 65.6101C109.176 66.7532 109.659 67.0453 112.058 65.3307C114.444 63.6162 114.05 63.8702 115.687 63.8448C117.325 63.8194 117.49 63.8194 117.756 62.689C118.023 61.5587 118.162 61.4571 116.982 62.0667C115.814 62.689 116.017 62.9176 114.355 62.9303C112.692 62.9557 112.083 63.0065 110.611 64.0099C109.151 65.0132 109.303 64.429 107.831 63.2478C106.359 62.0667 104.607 63.4892 105.102 63.8448V63.8575ZM120.142 62.0413C120.142 62.0413 120.32 62.0159 120.777 62.7906C121.234 63.5654 121.64 63.4511 122.947 62.9938C124.255 62.5366 124.775 62.8033 125.232 63.4003C125.689 63.9972 125.968 64.1369 127.351 63.6162C128.735 63.0827 128.989 63.1589 131.159 63.0065C133.317 62.8541 133.19 62.9176 134.053 63.5273C134.916 64.1369 136.211 64.0734 136.985 63.5527C137.759 63.0446 138.013 62.3969 138.863 63.1589C139.701 63.921 140.665 64.2512 141.985 63.6416C143.318 63.0319 144.219 62.4477 144.905 63.3876C145.603 64.3401 146.136 64.8481 147.545 64.5941C148.953 64.3401 148.382 64.5687 150.197 64.6957C152.012 64.8227 152.71 64.7846 153.853 64.9624C154.995 65.1529 154.906 64.7465 154.665 64.2893C154.424 63.8321 154.094 63.4003 152.482 63.7432C150.87 64.0988 150.248 64.3909 149.804 63.3622C149.36 62.3334 148.89 62.054 148.065 62.5493C147.24 63.0446 147.316 63.4257 146.009 62.3588C144.702 61.2793 144.067 61.0253 142.861 61.7238C141.655 62.4096 141.008 62.4604 140.361 61.4571C139.714 60.4537 139.358 59.8314 138.444 60.5299C137.531 61.2285 136.896 62.5874 136.185 61.7238C135.474 60.8601 134.281 60.1743 133.482 60.9745C132.695 61.7746 132.403 62.054 131.743 61.0507C131.07 60.0473 130.334 60.2759 129.776 61.2285C129.217 62.181 128.265 63.0065 126.869 61.7111C125.473 60.4156 124.75 60.5299 123.722 61.1396C122.694 61.7365 122.49 62.1302 121.247 61.4952C120.003 60.8601 119.229 61.4063 120.117 62.054L120.142 62.0413ZM156.848 65.2672C157.038 65.318 158.092 65.3561 159.437 66.4611C160.782 67.566 161.76 67.1977 161.519 66.423C161.277 65.6482 160.516 64.3782 159.094 64.4163C157.673 64.4671 156.861 65.2672 156.861 65.2672H156.848ZM165.098 68.0868C165.098 68.0868 165.199 68.8996 165.923 69.6743C166.646 70.4618 168.169 69.3822 168.372 70.3474C168.575 71.3 168.817 71.7064 170.098 71.6429C171.368 71.5794 171.38 71.7318 172.789 72.5573C174.211 73.3829 174.693 73.675 175.264 74.5005C175.835 75.3261 175.746 76.1643 176.838 76.0754C177.929 75.9865 178.259 75.7198 178.831 76.3802C179.414 77.0406 179.453 77.2692 179.706 77.6122C179.948 77.9551 180.811 77.8027 179.998 76.5834C179.186 75.3515 179.059 75.1482 177.917 74.9196C176.774 74.691 176.749 75.3007 175.975 74.0814C175.201 72.8495 174.211 71.9985 172.992 71.5794C171.786 71.1603 172.269 71.3 171.203 70.5634C170.137 69.8267 170.34 69.687 169.235 69.5473C168.131 69.4076 167.712 69.0774 167.344 68.4932C166.976 67.9089 164.869 67.6549 165.072 68.1249L165.098 68.0868ZM189.124 89.3856C188.87 89.2077 187.525 87.1376 186.877 87.2519C186.243 87.3662 185.938 86.7565 185.278 86.1977C184.618 85.6389 185.164 85.6516 183.819 85.5119C182.473 85.3722 182.359 84.8515 181.636 84.2418C180.912 83.6195 181.966 83.8608 180.189 83.8354C178.412 83.7973 177.993 83.1115 177.498 81.9049C177.003 80.6984 178.006 80.7492 178.501 81.7144C178.996 82.6797 179.643 82.9972 179.719 82.3495C179.795 81.7017 180.811 81.9811 181.851 83.0099C182.892 84.0513 183.006 83.7719 184.161 84.5593C185.316 85.3468 185.862 86.185 186.37 85.7405C186.877 85.296 187.372 85.55 187.867 86.4898C188.362 87.417 189.124 89.3856 189.124 89.3856V89.3856ZM176.774 85.4103C176.419 85.3087 175.835 84.6101 175.302 84.2418C174.756 83.8735 173.97 82.794 175.886 83.6449C177.803 84.5085 177.714 85.6516 176.774 85.4103ZM172.561 82.2224C172.561 82.2224 172.053 82.1335 171.799 81.8287C171.545 81.5239 170.987 80.7492 169.185 80.8762C167.382 81.0032 166.824 80.5714 166.57 80.2285C166.316 79.8855 166.215 80.165 165.314 79.8983C164.412 79.6315 164.362 79.314 163.232 78.933C162.102 78.552 160.973 78.1329 162.306 78.0567C163.638 77.9805 163.841 77.9297 164.476 78.5774C165.11 79.2251 165.301 79.568 166.253 79.3775C167.205 79.187 168.169 79.9999 168.448 80.1777C168.74 80.3555 169.299 80.2666 171.127 80.4952C172.954 80.7111 172.992 82.2351 172.548 82.2224H172.561ZM160.135 76.7866C160.135 76.7866 159.501 77.32 157.762 76.5961C156.023 75.8849 156.124 76.1135 154.741 75.8468C153.358 75.5801 152.558 75.3896 151.34 75.0466C150.121 74.7037 149.512 73.929 151.263 74.056C153.002 74.1957 152.533 74.31 154.665 74.8815C156.81 75.4658 156.099 74.3989 157.609 75.0212C159.12 75.6436 161.201 76.2024 160.122 76.7739L160.135 76.7866ZM148.065 74.818C147.887 74.7799 147.76 75.3515 146.58 74.7545C145.4 74.1576 145.235 73.929 144.638 73.9544C144.042 73.9798 143.686 73.1797 145.12 73.2305C146.555 73.2813 148.966 73.0146 148.065 74.8307V74.818ZM142.557 74.5386C142.341 74.6402 142.772 74.5513 141.782 74.9196C140.792 75.3007 142.328 73.8655 139.523 74.2338C136.706 74.6021 135.462 75.2118 134.637 74.3481C133.824 73.4845 134.053 73.5099 136.591 73.5607C139.13 73.5988 139.472 73.7131 140.272 73.421C141.072 73.1416 142.354 72.7478 142.201 73.3829C142.049 74.0179 142.024 74.1703 142.404 74.1576C142.772 74.1449 142.937 74.3862 142.557 74.5259V74.5386ZM129.408 74.5767C129.319 74.6148 128.798 75.6182 128.037 75.2753C127.275 74.9323 126.032 75.0339 125.498 75.669C124.965 76.304 124.255 75.669 123.899 75.4531C123.544 75.2372 123.531 75.6182 122.643 76.0246C121.742 76.431 120.726 76.5072 120.422 75.7071C120.13 74.9069 121.488 73.7004 122.998 74.2465C124.508 74.7926 124.597 74.6275 125.143 74.1576C125.676 73.6877 126.692 73.8401 126.971 73.9798C127.25 74.1322 127.148 74.1068 128.062 73.7258C128.976 73.3321 129.712 74.3735 129.408 74.5894V74.5767ZM119.241 76.4945C119.102 76.5072 117.566 76.7866 116.83 76.8628C116.094 76.939 115.154 76.6977 114.837 77.4851C114.52 78.2726 114.317 78.3488 113.251 77.5486C112.184 76.7485 112.058 76.4818 113.631 75.8722C115.192 75.2626 116.246 76.05 117.706 75.7325C119.165 75.415 119.482 76.1643 119.254 76.5072L119.241 76.4945ZM113.301 73.9671C113.301 73.9671 112.971 72.4811 114.291 73.7004C115.611 74.9196 116.182 74.6783 117.731 73.6623C119.279 72.6462 119.267 72.3033 120.409 72.8876C121.551 73.4718 121.577 73.5861 123.455 72.57C125.333 71.554 125.778 71.0333 126.4 71.808C127.022 72.5827 127.237 73.0654 128.824 72.189C130.41 71.3127 130.753 70.538 131.959 71.2873C133.164 72.0366 133.863 72.5065 134.827 71.5413C135.792 70.5761 136.553 71.1603 137.277 71.808C138 72.4557 138.774 72.5192 140.665 72.2271C142.544 71.935 143.242 72.5573 143.661 72.0747C144.08 71.5921 143.889 70.5888 142.595 70.6269C141.3 70.665 141.173 71.7826 139.472 71.5286C137.772 71.2746 137.67 69.6108 136.122 70.1061C134.573 70.6015 135.056 71.5921 133.863 70.9444C132.669 70.2966 131.806 69.1663 130.575 69.9791C129.344 70.792 128.798 71.8334 127.973 70.9571C127.148 70.0934 125.308 69.941 123.963 71.1349C122.617 72.3287 122.516 72.3922 120.929 71.808C119.355 71.2238 118.492 71.4143 117.744 72.1128C116.995 72.8114 116.487 73.4591 114.977 72.5192C113.466 71.5794 111.994 73.6877 113.289 73.9671H113.301ZM116.652 67.9851C116.792 67.9597 118.391 66.0801 120.599 67.9216C122.808 69.7632 124.013 68.8869 124.356 68.0741C124.699 67.2739 125.702 67.6549 126.488 68.1884C127.275 68.7218 127.859 67.1215 126.311 66.423C124.775 65.7245 123.544 66.677 122.554 67.058C121.564 67.439 120.752 67.0961 119.419 66.1563C118.086 65.2164 114.748 67.3882 116.652 67.9724V67.9851ZM128.278 66.7405C128.278 66.7405 129.179 67.9597 130.981 67.8581C132.771 67.7565 133.342 66.4484 134.383 67.0453C135.424 67.6422 137.302 67.7057 135.957 66.6389C134.611 65.572 134.18 65.0386 132.378 65.8515C130.563 66.677 129.014 66.042 128.621 65.7626C128.215 65.4831 127.593 65.5847 128.303 66.7278L128.278 66.7405ZM139.066 66.6008C139.066 66.6008 140.094 68.5313 141.617 67.9343C143.14 67.3374 143.128 66.8167 144.308 67.5025C145.488 68.1884 144.549 67.7311 146.352 68.7599C148.154 69.7886 149.487 69.1282 149.994 68.8234C150.489 68.5186 149.905 68.6964 149.233 67.6168C148.56 66.5246 148.09 66.2198 147.138 66.9056C146.174 67.5914 145.844 67.9851 145.273 67.058C144.702 66.1309 144.41 65.7626 143.496 66.2452C142.582 66.7278 141.782 67.8835 140.767 67.1215C139.739 66.3595 139.003 65.4704 139.079 66.6135L139.066 66.6008ZM144.778 71.4143C144.778 71.4143 145.133 71.9731 146.453 71.9223C147.773 71.8842 148.281 72.189 148.281 72.189C148.281 72.189 147.875 71.173 146.872 70.6523C145.869 70.1315 144.41 71.1603 144.778 71.4143V71.4143ZM149.804 72.2906C149.804 72.2906 149.715 72.4684 151.847 72.7351C153.98 73.0019 154.17 72.7351 154.119 72.4049C154.056 72.062 153.776 71.1984 152.165 71.0714C150.565 70.9444 149.931 71.6175 149.804 72.3033V72.2906ZM156.962 73.5734C156.962 73.5734 158.587 74.2084 159.272 74.1703C159.957 74.1322 161.087 74.3227 161.633 75.1991C162.179 76.0627 162.09 76.05 163.499 76.05C164.907 76.05 165.504 75.9357 165.897 76.7739C166.291 77.5995 167.458 77.4978 168.283 77.536C169.108 77.5741 168.905 78.1583 169.692 78.4885C170.479 78.806 171.355 78.4123 170.809 77.7011C170.263 76.9898 170.34 77.2438 168.613 76.7739C166.887 76.3167 167.04 76.3294 166.418 75.6563C165.796 74.9831 165.935 75.3896 164.26 75.1482C162.585 74.9069 163.105 74.7926 162.242 74.0687C161.379 73.3448 160.922 73.9798 160.059 73.5353C159.196 73.0908 159.158 72.9765 158.346 72.7859C157.546 72.5954 156.505 73.1924 156.949 73.5861L156.962 73.5734ZM172.18 79.1743C172.18 79.1743 174.185 80.2158 174.833 80.7492C175.493 81.2826 176.33 80.4698 175.125 79.5934C173.931 78.7171 171.837 79.0346 172.18 79.1743V79.1743ZM151.885 68.1503C151.885 68.1503 153.421 69.5473 154.817 69.4838C156.213 69.4203 157.495 69.2044 158.206 70.195C158.917 71.173 159.158 71.3127 160.947 71.2492C162.737 71.1857 163.334 71.5032 163.435 72.2398C163.524 72.9892 163.613 73.1924 165.098 73.1162C166.583 73.04 167.319 73.2051 167.966 73.8909C168.613 74.564 169.299 74.0814 169.756 73.6623C170.213 73.2559 170.365 72.3287 168.575 72.3668C166.773 72.4049 166.659 73.2051 165.288 71.7318C163.905 70.2585 164.641 69.6743 162.712 70.0426C160.782 70.4109 161.303 71.0206 160.414 69.8902C159.539 68.7472 159.716 68.6075 157.901 68.6456C156.086 68.6837 156.531 69.433 155.071 68.2773C153.611 67.1088 151.517 66.8802 151.898 68.1757L151.885 68.1503Z" fill="#303C30"/>
<path d="M99.3904 137.101L98.7939 135.488H94.7071L94.0978 137.101H91.0137L95.329 126.991H98.4132L102.576 137.101H99.3778H99.3904ZM95.5574 133.291H98.007L96.8013 129.989L95.5574 133.291ZM111.143 129.252V139.908H108.224V136.212C107.97 136.529 107.653 136.771 107.285 136.949C106.917 137.126 106.511 137.203 106.079 137.203C105.356 137.203 104.721 137.037 104.175 136.695C103.63 136.364 103.198 135.882 102.893 135.272C102.589 134.662 102.437 133.951 102.437 133.126C102.437 132.326 102.589 131.627 102.881 131.03C103.173 130.433 103.592 129.963 104.125 129.633C104.658 129.303 105.292 129.138 106.003 129.138C106.46 129.138 106.879 129.227 107.26 129.392C107.64 129.57 107.958 129.811 108.224 130.141V129.227H111.143V129.252ZM106.815 134.967C107.234 134.967 107.577 134.802 107.843 134.485C108.097 134.167 108.237 133.735 108.237 133.202C108.237 132.681 108.11 132.262 107.843 131.945C107.59 131.627 107.247 131.462 106.815 131.462C106.384 131.462 106.041 131.627 105.775 131.945C105.521 132.262 105.381 132.694 105.381 133.202C105.381 133.735 105.508 134.154 105.775 134.485C106.028 134.802 106.384 134.967 106.815 134.967ZM120.853 129.252V137.101H117.934V135.933C117.667 136.352 117.324 136.682 116.918 136.898C116.512 137.114 116.042 137.228 115.522 137.228C114.976 137.228 114.494 137.101 114.075 136.86C113.656 136.618 113.326 136.263 113.098 135.818C112.869 135.361 112.755 134.84 112.755 134.231V129.252H115.674V133.405C115.674 133.786 115.776 134.091 115.966 134.32C116.157 134.548 116.411 134.662 116.728 134.662C117.109 134.65 117.401 134.51 117.616 134.231C117.832 133.951 117.946 133.583 117.946 133.138V129.252H120.865H120.853ZM122.617 129.252H125.536V137.101H122.617V129.252ZM124.064 125.518C124.508 125.518 124.863 125.658 125.143 125.937C125.422 126.217 125.562 126.572 125.562 127.017C125.562 127.461 125.422 127.817 125.143 128.096C124.863 128.376 124.508 128.515 124.064 128.515C123.62 128.515 123.264 128.376 122.972 128.096C122.693 127.817 122.541 127.461 122.541 127.017C122.541 126.572 122.68 126.217 122.972 125.937C123.252 125.658 123.62 125.518 124.064 125.518ZM135.855 131.906C134.789 131.36 133.938 131.081 133.291 131.081C133.113 131.081 132.961 131.106 132.859 131.17C132.758 131.233 132.694 131.322 132.694 131.449C132.694 131.589 132.796 131.716 132.986 131.805C133.189 131.894 133.494 131.995 133.926 132.11C134.497 132.275 134.979 132.44 135.36 132.605C135.741 132.77 136.071 133.011 136.35 133.354C136.629 133.685 136.781 134.116 136.781 134.637C136.781 135.437 136.464 136.072 135.842 136.529C135.208 136.999 134.383 137.228 133.342 137.228C132.644 137.228 131.984 137.139 131.362 136.949C130.727 136.758 130.156 136.479 129.648 136.123L130.537 134.294C131.032 134.612 131.514 134.853 131.996 135.018C132.479 135.183 132.936 135.259 133.38 135.259C133.583 135.259 133.735 135.234 133.849 135.17C133.964 135.107 134.027 135.018 134.027 134.904C134.027 134.764 133.938 134.637 133.748 134.548C133.558 134.459 133.253 134.358 132.821 134.243C132.263 134.091 131.793 133.926 131.425 133.773C131.045 133.608 130.727 133.367 130.448 133.037C130.169 132.707 130.029 132.287 130.029 131.767C130.029 130.954 130.334 130.319 130.956 129.849C131.565 129.379 132.377 129.138 133.38 129.138C134.586 129.138 135.728 129.455 136.832 130.09L135.868 131.919L135.855 131.906ZM141.579 129.15C142.874 129.15 143.876 129.531 144.587 130.293C145.31 131.055 145.666 132.11 145.666 133.43C145.666 133.634 145.666 133.786 145.653 133.875H140.373C140.487 134.256 140.678 134.535 140.944 134.739C141.211 134.942 141.528 135.043 141.909 135.043C142.518 135.043 143.089 134.789 143.635 134.294L145.145 135.78C144.727 136.237 144.232 136.593 143.635 136.834C143.039 137.076 142.379 137.19 141.655 137.19C140.792 137.19 140.043 137.025 139.409 136.695C138.774 136.364 138.292 135.894 137.949 135.297C137.606 134.701 137.441 134.002 137.441 133.202C137.441 132.389 137.619 131.678 137.962 131.068C138.304 130.459 138.799 129.989 139.421 129.646C140.043 129.316 140.767 129.138 141.579 129.138V129.15ZM142.785 132.453C142.797 132.072 142.683 131.754 142.467 131.5C142.252 131.246 141.96 131.119 141.604 131.119C141.262 131.119 140.995 131.233 140.767 131.475C140.551 131.716 140.399 132.033 140.322 132.44H142.785V132.453Z" fill="#FEFEFE"/>
<path d="M104.544 141.635C105.267 141.635 105.902 141.8 106.447 142.143C106.993 142.486 107.425 142.956 107.729 143.578C108.034 144.188 108.186 144.912 108.186 145.712C108.186 146.512 108.034 147.211 107.742 147.808C107.45 148.405 107.031 148.874 106.498 149.205C105.965 149.535 105.331 149.7 104.62 149.7C104.163 149.7 103.744 149.611 103.363 149.446C102.983 149.268 102.665 149.027 102.399 148.697V152.405H99.4795V141.749H102.399V142.664C102.653 142.334 102.97 142.092 103.338 141.915C103.706 141.737 104.112 141.661 104.544 141.661V141.635ZM103.808 147.376C104.239 147.376 104.582 147.211 104.848 146.893C105.102 146.576 105.242 146.144 105.242 145.636C105.242 145.115 105.115 144.696 104.848 144.378C104.594 144.061 104.239 143.896 103.808 143.896C103.389 143.896 103.046 144.061 102.779 144.378C102.526 144.696 102.386 145.128 102.386 145.636C102.386 146.157 102.513 146.576 102.779 146.893C103.033 147.211 103.376 147.376 103.808 147.376ZM112.87 141.635C114.164 141.635 115.167 142.016 115.878 142.778C116.601 143.54 116.956 144.594 116.956 145.915C116.956 146.118 116.957 146.271 116.944 146.36H111.664C111.778 146.741 111.969 147.02 112.235 147.223C112.502 147.427 112.819 147.528 113.2 147.528C113.809 147.528 114.38 147.274 114.926 146.779L116.436 148.265C116.017 148.722 115.522 149.078 114.926 149.319C114.329 149.56 113.669 149.675 112.946 149.675C112.083 149.675 111.334 149.509 110.699 149.179C110.065 148.849 109.582 148.379 109.24 147.782C108.897 147.185 108.732 146.487 108.732 145.687C108.732 144.874 108.91 144.175 109.252 143.553C109.595 142.943 110.09 142.473 110.712 142.13C111.334 141.788 112.057 141.622 112.87 141.622V141.635ZM114.075 144.937C114.088 144.556 113.974 144.239 113.758 143.985C113.542 143.731 113.25 143.604 112.895 143.604C112.565 143.604 112.286 143.718 112.057 143.959C111.842 144.201 111.689 144.518 111.613 144.925H114.075V144.937ZM123.633 144.391C122.566 143.845 121.716 143.566 121.069 143.566C120.891 143.566 120.739 143.591 120.637 143.655C120.536 143.718 120.472 143.807 120.472 143.934C120.472 144.074 120.574 144.201 120.764 144.29C120.967 144.378 121.272 144.48 121.703 144.594C122.274 144.759 122.757 144.925 123.138 145.09C123.518 145.255 123.848 145.496 124.128 145.839C124.407 146.169 124.559 146.601 124.559 147.122C124.559 147.922 124.242 148.557 123.62 149.014C122.985 149.484 122.16 149.713 121.12 149.713C120.421 149.713 119.761 149.624 119.14 149.433C118.505 149.243 117.934 148.963 117.426 148.608L118.315 146.779C118.81 147.096 119.292 147.338 119.774 147.503C120.256 147.668 120.713 147.744 121.158 147.744C121.361 147.744 121.513 147.719 121.627 147.655C121.741 147.592 121.805 147.503 121.805 147.388C121.805 147.249 121.716 147.122 121.526 147.033C121.335 146.944 121.031 146.842 120.599 146.728C120.041 146.576 119.571 146.411 119.203 146.245C118.822 146.08 118.505 145.839 118.226 145.509C117.946 145.179 117.807 144.759 117.807 144.239C117.807 143.426 118.111 142.791 118.733 142.321C119.343 141.851 120.155 141.61 121.158 141.61C122.363 141.61 123.506 141.927 124.61 142.562L123.645 144.391H123.633ZM130.715 144.785C130.575 144.531 130.41 144.34 130.194 144.213C129.979 144.074 129.737 144.01 129.471 144.01C129.09 144.01 128.773 144.163 128.532 144.467C128.291 144.772 128.176 145.179 128.176 145.674C128.176 146.182 128.291 146.601 128.532 146.906C128.773 147.223 129.077 147.376 129.471 147.376C130.055 147.376 130.474 147.084 130.715 146.512L132.974 147.655C132.682 148.303 132.212 148.798 131.565 149.154C130.93 149.509 130.169 149.687 129.306 149.687C128.494 149.687 127.77 149.522 127.161 149.192C126.552 148.862 126.069 148.392 125.739 147.795C125.397 147.198 125.232 146.499 125.232 145.699C125.232 144.886 125.397 144.188 125.739 143.566C126.082 142.956 126.564 142.486 127.186 142.143C127.808 141.8 128.519 141.635 129.344 141.635C130.156 141.635 130.88 141.813 131.514 142.169C132.149 142.524 132.631 143.032 132.961 143.68L130.727 144.772L130.715 144.785ZM137.556 141.622C138.66 141.622 139.523 141.876 140.145 142.384C140.767 142.892 141.071 143.591 141.071 144.493V149.586H138.216V148.722C137.975 149.04 137.657 149.281 137.277 149.459C136.883 149.636 136.439 149.713 135.931 149.713C135.106 149.713 134.459 149.484 133.989 149.04C133.52 148.595 133.279 147.998 133.279 147.249C133.279 146.487 133.532 145.903 134.053 145.496C134.573 145.09 135.322 144.874 136.312 144.874H138.228V144.848C138.228 144.518 138.114 144.264 137.886 144.086C137.657 143.909 137.315 143.807 136.87 143.807C136.553 143.807 136.185 143.858 135.766 143.947C135.347 144.048 134.929 144.188 134.51 144.366L133.786 142.435C135.119 141.902 136.375 141.622 137.568 141.622H137.556ZM136.896 147.808C137.188 147.808 137.467 147.731 137.708 147.592C137.949 147.452 138.127 147.249 138.228 146.995V146.284H136.896C136.312 146.284 136.02 146.525 136.02 147.02C136.02 147.274 136.096 147.465 136.248 147.592C136.401 147.731 136.617 147.795 136.896 147.795V147.808ZM142.391 139.501H145.158V142.13L144.651 145.979H142.912L142.391 142.13V139.501ZM143.724 146.995C144.13 146.995 144.46 147.122 144.714 147.376C144.968 147.63 145.095 147.947 145.095 148.341C145.095 148.747 144.968 149.078 144.714 149.332C144.46 149.586 144.13 149.713 143.724 149.713C143.331 149.713 143.001 149.586 142.747 149.332C142.493 149.078 142.366 148.747 142.366 148.341C142.366 147.947 142.493 147.63 142.747 147.376C143.001 147.122 143.331 146.995 143.724 146.995Z" fill="#FEFEFE"/>
<path d="M32.959 129.379C32.4513 128.376 32.299 127.487 32.502 126.687C32.7051 125.899 33.2382 125.277 34.1139 124.832C35.0278 124.362 35.8908 124.286 36.6651 124.566C37.452 124.858 38.0993 125.506 38.6069 126.509L39.2289 127.715L41.3104 126.661L42.478 128.96L34.7359 132.872L32.959 129.354V129.379ZM36.9062 127.525C36.7285 127.182 36.5001 126.953 36.2208 126.864C35.9416 126.776 35.6243 126.814 35.2816 126.992C34.9389 127.157 34.7359 127.385 34.647 127.665C34.5582 127.944 34.6089 128.262 34.7866 128.604L35.3451 129.709L37.4647 128.643L36.9062 127.538V127.525ZM29.0244 120.438C28.7198 119.6 28.6183 118.774 28.7325 117.961C28.8467 117.149 29.1513 116.437 29.659 115.815C30.154 115.193 30.8013 114.748 31.6009 114.456C32.4005 114.164 33.2001 114.088 33.987 114.227C34.7739 114.38 35.472 114.723 36.0939 115.256C36.7158 115.802 37.1727 116.488 37.4773 117.326C37.782 118.177 37.8835 119.003 37.7566 119.803C37.6297 120.616 37.325 121.327 36.8174 121.949C36.3097 122.572 35.6497 123.029 34.8501 123.321C34.0505 123.613 33.2636 123.689 32.4894 123.537C31.7151 123.385 31.0171 123.042 30.4079 122.508C29.7986 121.962 29.3417 121.276 29.0244 120.425V120.438ZM31.0171 119.663C31.144 120.019 31.3598 120.311 31.6771 120.552C31.9817 120.794 32.3371 120.933 32.7432 120.997C33.1493 121.06 33.5555 121.01 33.9616 120.857C34.3678 120.705 34.7105 120.476 34.9897 120.171C35.2689 119.867 35.4466 119.524 35.5228 119.143C35.6116 118.762 35.5862 118.393 35.4593 118.038C35.3324 117.695 35.1166 117.403 34.812 117.174C34.5074 116.945 34.152 116.806 33.7586 116.768C33.3651 116.717 32.9463 116.78 32.5274 116.933C32.1213 117.085 31.7786 117.301 31.4994 117.593C31.2201 117.885 31.0425 118.215 30.9536 118.584C30.8648 118.952 30.8902 119.308 31.0171 119.663V119.663ZM31.7786 110.1C32.2609 110.024 32.6163 109.82 32.8701 109.49C33.1113 109.16 33.2128 108.792 33.1367 108.385C33.0732 107.979 32.8701 107.674 32.5401 107.458C32.2101 107.242 31.804 107.179 31.309 107.255L26.2956 108.08L25.8768 105.54L30.8902 104.715C31.639 104.588 32.3244 104.639 32.9336 104.88C33.5428 105.108 34.0505 105.502 34.4566 106.036C34.8628 106.582 35.1293 107.242 35.2562 108.042C35.3832 108.842 35.3451 109.566 35.142 110.214C34.9389 110.862 34.5836 111.408 34.0759 111.827C33.5682 112.246 32.9463 112.526 32.1974 112.64L27.1841 113.465L26.7652 110.925L31.7786 110.1V110.1ZM28.3771 96.7642C28.1233 97.2341 27.9075 97.7549 27.7425 98.3137C27.5775 98.8725 27.4887 99.3297 27.5014 99.6854C27.5141 99.914 27.5648 100.079 27.6537 100.206C27.7425 100.333 27.8694 100.384 28.0344 100.384C28.2629 100.371 28.4406 100.244 28.5548 99.9902C28.669 99.7362 28.796 99.3424 28.9229 98.7963C29.0752 98.174 29.2275 97.666 29.3925 97.2723C29.5575 96.8658 29.8113 96.5102 30.1667 96.2054C30.5221 95.9006 30.9917 95.7355 31.5882 95.7101C32.1847 95.6847 32.7051 95.8244 33.1367 96.1292C33.5682 96.434 33.8855 96.8531 34.1139 97.3866C34.3424 97.92 34.4693 98.5169 34.4947 99.19C34.5201 99.9267 34.4186 100.676 34.2028 101.438C33.9743 102.2 33.657 102.848 33.2382 103.407L31.2455 102.518C31.6136 102.073 31.9055 101.527 32.1467 100.879C32.3878 100.244 32.4894 99.698 32.4767 99.2408C32.464 98.9614 32.4005 98.7455 32.2863 98.5931C32.1721 98.4407 32.0197 98.3645 31.8167 98.3772C31.5755 98.3899 31.3978 98.5169 31.2836 98.7836C31.1694 99.0503 31.0425 99.444 30.9282 99.9902C30.7886 100.6 30.649 101.108 30.4967 101.502C30.3444 101.908 30.0906 102.251 29.7479 102.556C29.4052 102.86 28.9483 103.013 28.3644 103.038C27.806 103.064 27.311 102.924 26.8795 102.645C26.4479 102.365 26.1179 101.959 25.8768 101.425C25.6356 100.892 25.496 100.27 25.4706 99.5457C25.4452 98.8979 25.5214 98.2375 25.6737 97.5898C25.8387 96.942 26.0545 96.3705 26.3464 95.8752L28.3644 96.7515L28.3771 96.7642ZM35.3197 88.4073L33.8728 88.6994L33.327 92.1666L34.6216 92.8906L34.2155 95.5069L26.2195 90.5156L26.6256 87.8993L35.7512 85.7021L35.3324 88.42L35.3197 88.4073ZM31.5882 91.1506L31.9182 89.0677L28.961 89.6519L31.6009 91.1379L31.5882 91.1506ZM28.796 78.9708C29.0625 78.0817 29.4686 77.3578 30.0144 76.7863C30.5602 76.2148 31.2075 75.8337 31.9436 75.6559C32.6797 75.4781 33.4666 75.5035 34.2789 75.7448C35.1039 75.9862 35.7766 76.3926 36.2843 76.9641C36.8047 77.5356 37.1347 78.2087 37.2743 79.0089C37.4139 79.7963 37.3504 80.6473 37.0839 81.549L36.0178 85.1051L27.7044 82.6158L28.796 78.9708V78.9708ZM35.1928 80.7997C35.3578 80.2408 35.2943 79.7201 34.9897 79.2502C34.6851 78.7803 34.2155 78.4501 33.5428 78.2469C32.8828 78.0436 32.2863 78.069 31.7659 78.3231C31.2455 78.5771 30.8902 78.9962 30.7125 79.5804L30.3825 80.7108L34.812 82.0316L35.1801 80.787L35.1928 80.7997ZM41.7038 70.6773L40.2442 70.4995L38.6577 73.6239L39.6604 74.7161L38.4673 77.0784L32.4005 69.8645L33.5936 67.5022L42.9476 68.2261L41.7038 70.6773ZM37.2997 72.1379L38.2516 70.2582L35.2562 69.9026L37.2997 72.1379ZM41.8942 59.2976C41.4119 59.539 40.9423 59.8311 40.4727 60.1867C40.0158 60.5423 39.6858 60.8725 39.4827 61.1646C39.3558 61.3551 39.305 61.5202 39.305 61.6727C39.305 61.8251 39.3812 61.9521 39.5081 62.041C39.6985 62.168 39.9142 62.168 40.1554 62.0283C40.3965 61.8886 40.7265 61.6473 41.1454 61.2789C41.6277 60.8598 42.0465 60.5423 42.4146 60.3137C42.7826 60.0851 43.2015 59.9454 43.6584 59.8946C44.128 59.8565 44.5976 59.9962 45.0926 60.3137C45.6003 60.6439 45.9303 61.063 46.108 61.5583C46.2857 62.0537 46.2984 62.5871 46.1841 63.1459C46.0572 63.7047 45.8161 64.2763 45.448 64.8351C45.0418 65.4574 44.5215 66.0035 43.8995 66.4862C43.2776 66.9688 42.6303 67.3244 41.9703 67.5403L40.8661 65.6606C41.4246 65.5082 41.983 65.2288 42.5542 64.8478C43.1126 64.4668 43.5315 64.0858 43.7726 63.7047C43.9249 63.4761 44.0011 63.2602 44.0011 63.0697C44.0011 62.8792 43.9122 62.7268 43.7472 62.6252C43.5442 62.4982 43.3284 62.4982 43.0746 62.6379C42.8334 62.7776 42.5034 63.0316 42.0846 63.4126C41.6277 63.8317 41.2088 64.162 40.8534 64.3906C40.4981 64.6319 40.0919 64.7716 39.635 64.8097C39.1781 64.8605 38.7085 64.7208 38.2262 64.4033C37.7566 64.0985 37.4266 63.7047 37.2489 63.2221C37.0585 62.7395 37.0331 62.2188 37.1347 61.6473C37.2489 61.0757 37.5027 60.4915 37.8962 59.8819C38.2516 59.3357 38.6831 58.8531 39.2035 58.4086C39.7112 57.9768 40.2315 57.6466 40.7392 57.4053L41.8688 59.2976H41.8942ZM45.9303 50.3311C46.6918 49.5055 47.466 49.0483 48.2783 48.9467C49.0906 48.8578 49.8521 49.1372 50.5756 49.7976C51.3371 50.4962 51.7179 51.2582 51.7306 52.0964C51.7306 52.9347 51.3625 53.7729 50.601 54.5984L49.6871 55.6145L51.4006 57.1894L49.6618 59.0944L43.2649 53.2395L45.9176 50.3311H45.9303ZM49.0652 53.3665C49.3318 53.0744 49.446 52.795 49.446 52.4902C49.4333 52.198 49.2937 51.9186 49.0018 51.6519C48.7225 51.3979 48.4306 51.2709 48.1514 51.2963C47.8595 51.3217 47.5803 51.4741 47.3264 51.7535L46.4887 52.668L48.2402 54.2682L49.0779 53.3538L49.0652 53.3665ZM55.0559 48.6038C55.3732 48.9721 55.7286 49.188 56.1347 49.2388C56.5409 49.2896 56.9089 49.1753 57.2262 48.9086C57.5435 48.6419 57.7085 48.3117 57.7212 47.918C57.7339 47.5243 57.5816 47.1305 57.2643 46.7495L54.0151 42.8378L55.9951 41.1867L59.2443 45.0985C59.7266 45.6827 60.0312 46.2923 60.1327 46.94C60.247 47.5878 60.1708 48.2101 59.9043 48.8451C59.6377 49.4674 59.1935 50.039 58.5843 50.547C57.9624 51.0677 57.3151 51.3979 56.6551 51.5503C55.9824 51.7027 55.3478 51.6646 54.7259 51.4487C54.104 51.2328 53.5582 50.8264 53.0759 50.2422L49.8268 46.3304L51.8067 44.6793L55.0559 48.5911V48.6038ZM57.7085 39.8785L63.5723 35.8906L64.6892 37.5289L60.9577 40.069L61.7192 41.1994L65.108 38.9006L66.2249 40.539L62.8361 42.8378L63.6104 43.9681L67.4434 41.3518L68.5603 42.9902L62.595 47.0543L57.7212 39.8785H57.7085ZM74.0686 39.9039L71.911 38.4434L70.7306 39.1165L71.8983 41.1486L69.6645 42.4313L65.3492 34.8999L68.8649 32.8932C69.8676 32.309 70.7941 32.0931 71.6064 32.2455C72.4314 32.3979 73.0787 32.8932 73.5736 33.7442C73.8909 34.2903 74.0559 34.8364 74.0686 35.3698C74.0813 35.9033 73.9544 36.3986 73.6752 36.8685L76.6071 38.4561L74.0686 39.9039V39.9039ZM69.7406 37.4019L71.0225 36.6653C71.3525 36.4748 71.5683 36.2335 71.6444 35.9541C71.7206 35.6747 71.6698 35.3571 71.4795 35.0269C71.2891 34.6967 71.0606 34.4935 70.7687 34.43C70.4895 34.3538 70.1722 34.4173 69.8422 34.6078L68.5603 35.3444L69.7406 37.4019V37.4019ZM73.4213 30.569L80.3766 27.4574L81.2143 29.3371L78.917 30.3658L81.6204 36.4113L79.2597 37.4654L76.5563 31.42L74.259 32.4487L73.4213 30.569V30.569ZM85.6565 25.5269C86.5069 25.2602 87.3319 25.1967 88.1315 25.3491C88.9311 25.5015 89.6418 25.8444 90.2257 26.3652C90.8222 26.8859 91.241 27.559 91.5076 28.3718C91.7614 29.1847 91.8122 29.9848 91.6218 30.7722C91.4441 31.547 91.0633 32.2328 90.4922 32.8297C89.9211 33.4267 89.2103 33.8585 88.3599 34.1252C87.5096 34.3919 86.6719 34.4554 85.8723 34.303C85.0727 34.1506 84.3746 33.8077 83.7781 33.2743C83.1816 32.7408 82.75 32.0677 82.4962 31.2422C82.2423 30.4293 82.2043 29.6419 82.382 28.8672C82.5596 28.0924 82.9404 27.4193 83.5116 26.8224C84.0827 26.2382 84.7935 25.8063 85.6438 25.5269H85.6565ZM86.3419 27.559C85.9865 27.6733 85.6819 27.8765 85.4281 28.1686C85.1742 28.4608 85.0219 28.8164 84.9458 29.2101C84.8696 29.6165 84.895 30.0229 85.0346 30.442C85.1615 30.8612 85.3773 31.2168 85.6692 31.4962C85.9611 31.7883 86.3038 31.9788 86.6719 32.0804C87.04 32.182 87.408 32.182 87.7761 32.055C88.1315 31.9407 88.4234 31.7375 88.6645 31.4454C88.9057 31.1533 89.058 30.7976 89.1215 30.4039C89.1849 30.0102 89.1468 29.5911 89.0199 29.172C88.893 28.7529 88.6772 28.3972 88.398 28.1178C88.1188 27.8257 87.7888 27.6352 87.4334 27.5336C87.078 27.432 86.71 27.4447 86.3546 27.559H86.3419ZM98.2598 22.3137C99.3513 22.0724 100.265 22.1486 100.976 22.5296C101.687 22.9233 102.156 23.5964 102.372 24.549C102.6 25.5523 102.474 26.4033 101.991 27.0891C101.509 27.7749 100.735 28.2448 99.6305 28.4862L98.3105 28.791L98.8182 31.0644L96.3052 31.6232L94.4267 23.1519L98.2725 22.301L98.2598 22.3137ZM99.0847 26.5938C99.4655 26.5049 99.732 26.3398 99.897 26.0985C100.062 25.8571 100.1 25.5396 100.011 25.1586C99.9351 24.7903 99.7574 24.5236 99.5163 24.3712C99.2624 24.2188 98.9578 24.1807 98.5771 24.2696L97.3713 24.5363L97.8917 26.8605L99.0974 26.5938H99.0847ZM110.178 29.2228L109.492 27.9146L106.027 28.3845L105.697 29.8324L103.07 30.188L105.558 21.0944L108.185 20.7388L112.894 28.8545L110.178 29.2228V29.2228ZM106.472 26.4287L108.553 26.1493L107.144 23.4821L106.472 26.4287ZM118.618 28.7275L117.425 26.4033L116.067 26.4287L116.105 28.7656L113.528 28.8164L113.363 20.1419L117.412 20.0657C118.58 20.0403 119.481 20.2943 120.128 20.815C120.776 21.3358 121.106 22.0978 121.131 23.0757C121.144 23.7108 121.029 24.2696 120.788 24.7395C120.547 25.2094 120.192 25.5904 119.722 25.8698L121.537 28.6767L118.618 28.7275V28.7275ZM116.029 24.4601L117.501 24.4347C117.894 24.422 118.186 24.3204 118.389 24.1045C118.592 23.8886 118.694 23.5964 118.694 23.2027C118.681 22.8217 118.58 22.5296 118.364 22.3391C118.148 22.1359 117.844 22.047 117.463 22.047L115.991 22.0724L116.029 24.4474V24.4601ZM128.848 28.9307L128.416 27.5209L124.926 27.3304L124.329 28.6894L121.689 28.537L125.865 20.0784L128.505 20.2308L131.589 29.0958L128.848 28.9434V28.9307ZM125.738 25.4888L127.832 25.6031L126.957 22.7201L125.738 25.4888V25.4888ZM133.061 20.5737L135.625 20.8277L134.762 29.4641L132.198 29.2101L133.049 20.5737H133.061ZM143.418 24.93C143.012 24.5744 142.555 24.2569 142.047 23.9775C141.54 23.6854 141.108 23.5202 140.766 23.4567C140.55 23.4186 140.372 23.4313 140.22 23.4948C140.08 23.5583 139.991 23.6727 139.966 23.8378C139.928 24.0664 140.017 24.2696 140.233 24.4347C140.448 24.5998 140.816 24.8157 141.311 25.057C141.882 25.3364 142.339 25.6031 142.707 25.8444C143.063 26.0858 143.355 26.416 143.583 26.8224C143.812 27.2288 143.862 27.7241 143.761 28.3083C143.647 28.9053 143.406 29.3752 143.012 29.7308C142.619 30.0864 142.149 30.315 141.578 30.4166C141.007 30.5182 140.397 30.5182 139.738 30.3912C139.001 30.2515 138.303 29.9975 137.605 29.6165C136.92 29.2355 136.349 28.7783 135.892 28.2448L137.186 26.4922C137.554 26.9494 138.011 27.3558 138.595 27.7241C139.166 28.0924 139.674 28.321 140.131 28.3972C140.41 28.4481 140.626 28.4354 140.804 28.3591C140.981 28.2829 141.083 28.1432 141.121 27.9527C141.159 27.7114 141.07 27.5082 140.842 27.3431C140.613 27.1653 140.245 26.9621 139.75 26.7335C139.192 26.4668 138.722 26.2255 138.367 25.9841C138.011 25.7428 137.719 25.4253 137.504 25.0316C137.288 24.6252 137.224 24.1426 137.326 23.5837C137.428 23.0376 137.656 22.5804 138.024 22.2248C138.392 21.8692 138.862 21.6279 139.433 21.5009C140.004 21.3739 140.639 21.3866 141.349 21.5136C141.997 21.6279 142.606 21.8438 143.215 22.1359C143.812 22.4407 144.319 22.7836 144.738 23.1646L143.444 24.9427L143.418 24.93ZM150.526 23.5456C151.389 23.7743 152.112 24.168 152.722 24.7141C153.318 25.2729 153.737 25.9333 153.953 26.6954C154.181 27.4574 154.181 28.2448 153.965 29.0704C153.75 29.8959 153.356 30.5944 152.785 31.166C152.214 31.7248 151.528 32.1058 150.742 32.309C149.942 32.5122 149.117 32.4868 148.254 32.2709C147.378 32.0423 146.655 31.6486 146.058 31.0898C145.462 30.5309 145.055 29.8578 144.84 29.0958C144.624 28.321 144.611 27.5209 144.827 26.6954C145.043 25.8698 145.436 25.184 145.995 24.6252C146.566 24.0664 147.239 23.6981 148.038 23.4948C148.825 23.3043 149.663 23.317 150.526 23.5456V23.5456ZM150.018 25.6285C149.65 25.5269 149.282 25.5396 148.914 25.6666C148.546 25.7809 148.229 25.9968 147.949 26.289C147.67 26.5811 147.48 26.9494 147.365 27.3685C147.251 27.7876 147.251 28.2067 147.34 28.6005C147.442 29.0069 147.619 29.3498 147.873 29.6292C148.14 29.9213 148.444 30.1118 148.812 30.2007C149.168 30.2896 149.536 30.2769 149.891 30.1499C150.247 30.0229 150.564 29.8197 150.83 29.5149C151.097 29.2101 151.287 28.8418 151.402 28.4227C151.516 28.0035 151.528 27.5971 151.44 27.2034C151.351 26.8097 151.186 26.4795 150.932 26.2001C150.678 25.9206 150.373 25.7301 150.005 25.6412L150.018 25.6285Z" fill="#FEFEFE"/>
<path d="M188.552 54.0146L189.111 52.6429L186.522 50.2933L185.202 50.9665L183.234 49.1884L191.802 45.2512L193.769 47.0293L190.596 55.8562L188.565 54.0146H188.552ZM188.311 49.3789L189.872 50.7887L191.002 47.9945L188.311 49.3789V49.3789ZM194.251 60.2633L195.343 57.8883L194.48 56.8341L192.665 58.3074L191.04 56.3134L197.767 50.8268L200.318 53.9638C201.054 54.8655 201.409 55.7292 201.397 56.5674C201.384 57.4056 201.003 58.1296 200.242 58.7519C199.747 59.1583 199.239 59.3996 198.719 59.5012C198.198 59.6028 197.691 59.552 197.183 59.3615L196.091 62.5112L194.251 60.2506V60.2633ZM196.015 55.5895L196.942 56.7325C197.183 57.0373 197.449 57.2024 197.754 57.2278C198.046 57.2659 198.338 57.1516 198.643 56.9103C198.934 56.669 199.099 56.4023 199.125 56.1102C199.15 55.8181 199.036 55.526 198.795 55.2211L197.868 54.0781L196.028 55.5768L196.015 55.5895ZM203.58 65.5975L204.786 67.4645L201.828 69.3822C201.295 69.1663 200.749 68.8234 200.191 68.3535C199.633 67.8836 199.188 67.401 198.858 66.8802C198.376 66.1436 198.109 65.3689 198.059 64.556C198.008 63.7432 198.148 62.9812 198.503 62.2699C198.858 61.5587 199.391 60.9745 200.115 60.5046C200.826 60.0473 201.587 59.806 202.387 59.7806C203.186 59.7552 203.948 59.9584 204.671 60.3649C205.395 60.7713 206.004 61.3682 206.499 62.1302C206.854 62.6891 207.121 63.2987 207.273 63.9845C207.425 64.6703 207.464 65.3181 207.362 65.9277L205.09 65.6483C205.166 65.2419 205.179 64.8227 205.103 64.3909C205.027 63.9591 204.887 63.5908 204.684 63.2733C204.456 62.9304 204.176 62.6637 203.821 62.4985C203.466 62.3334 203.085 62.2572 202.679 62.2953C202.272 62.3334 201.892 62.4731 201.524 62.7018C201.156 62.9431 200.864 63.2479 200.661 63.6035C200.458 63.9591 200.369 64.3401 200.381 64.7338C200.394 65.1276 200.508 65.4959 200.737 65.8515C200.94 66.169 201.27 66.4611 201.752 66.7532L203.567 65.5721L203.58 65.5975ZM209.329 67.2358L212.452 73.5988L210.675 74.4752L208.682 70.4237L207.464 71.0206L209.266 74.7038L207.489 75.5801L205.687 71.8969L204.456 72.5066L206.499 76.6723L204.722 77.5487L201.549 71.0714L209.329 67.2486V67.2358ZM215.104 81.9558L215.751 84.2165L207.425 86.6296L206.816 84.5213L210.434 79.6443L205.801 80.9905L205.141 78.7171L213.467 76.304L214.076 78.425L210.446 83.302L215.092 81.9558H215.104ZM216.094 86.0961L217.275 93.6276L215.244 93.9451L214.85 91.4558L208.314 92.4845L207.92 89.9317L214.457 88.903L214.063 86.4264L216.094 86.1088V86.0961ZM217.236 95.4818L217.325 98.0601L208.657 98.3776L208.568 95.7993L217.236 95.4818ZM216.919 106.493L216.703 108.83L208.073 108.043L208.276 105.858L213.416 102.632L208.606 102.188L208.822 99.8381L217.452 100.626L217.249 102.823L212.096 106.036L216.906 106.481L216.919 106.493ZM206.321 115.663L207.781 115.485L208.568 112.069L207.337 111.243L207.933 108.665L215.548 114.228L214.952 116.806L205.699 118.33L206.321 115.65V115.663ZM210.243 113.199L209.761 115.244L212.756 114.876L210.243 113.199V113.199Z" fill="#FEFEFE"/>
<path d="M58.4831 150.437L59.6889 151.377L54.7643 157.702L53.5586 156.762L58.4831 150.437ZM59.9554 151.643L65.4511 155.187L64.7149 156.33L62.6207 154.971L59.0162 160.559L57.7216 159.721L61.3262 154.133L59.232 152.774L59.9681 151.631L59.9554 151.643ZM66.4664 165.042L66.6949 163.214L63.3061 161.258L61.8465 162.375L60.4631 161.588L67.4945 156.381L68.8779 157.168L67.9007 165.843L66.4664 165.017V165.042ZM64.4357 160.394L66.8726 161.791L67.3422 158.171L64.4357 160.381V160.394ZM69.7537 154.907L70.7056 156.127L68.8526 156.419L67.9007 155.746L69.7537 154.907ZM74.729 160.178L76.1124 160.826L72.7236 168.091L71.3275 167.443L74.7163 160.178H74.729ZM80.91 162.883C81.697 163.214 82.2554 163.645 82.56 164.166C82.8773 164.687 82.9154 165.233 82.6742 165.805C82.5092 166.211 82.2427 166.516 81.8873 166.706C81.532 166.897 81.1385 166.96 80.6943 166.897C81.1512 167.189 81.4431 167.57 81.5827 168.014C81.7223 168.459 81.6843 168.929 81.4812 169.424C81.2147 170.059 80.7577 170.453 80.1231 170.605C79.4758 170.758 78.7397 170.669 77.8893 170.313L74.5132 168.891L77.6101 161.499L80.8974 162.871L80.91 162.883ZM79.5647 165.868C79.9328 166.02 80.2501 166.059 80.5293 165.982C80.8085 165.906 80.9989 165.728 81.1258 165.436C81.24 165.157 81.2273 164.89 81.0877 164.649C80.9481 164.407 80.6943 164.217 80.3262 164.065L78.5366 163.315L77.7878 165.106L79.5774 165.855L79.5647 165.868ZM78.2447 169.018C78.6889 169.208 79.0824 169.272 79.4124 169.208C79.7424 169.145 79.9708 168.942 80.0977 168.624C80.2247 168.319 80.1993 168.027 80.0216 167.748C79.8439 167.468 79.5266 167.24 79.0697 167.062L77.2801 166.313L76.4551 168.268L78.2447 169.018V169.018ZM87.713 173.704L87.5607 171.875L83.8419 170.669L82.6489 172.066L81.1385 171.571L86.9642 165.042L88.4745 165.538L89.2868 174.238L87.7257 173.73L87.713 173.704ZM84.7684 169.577L87.4465 170.453L87.1546 166.821L84.7684 169.577ZM90.4037 166.224L96.7625 167.71L96.4579 169.03L94.0337 168.459L92.5233 174.936L91.0129 174.581L92.5233 168.103L90.0991 167.532L90.4037 166.211V166.224ZM97.4351 167.9L103.21 168.954L102.969 170.275L98.7043 169.5L98.349 171.444L102.182 172.142L101.941 173.463L98.1078 172.764L97.7524 174.746L102.157 175.546L101.915 176.867L96.0009 175.787L97.4351 167.9ZM101.281 166.16L102.588 166.986L100.938 167.887L99.8213 167.57L101.294 166.16H101.281ZM109.137 173.768L111.993 174.073L111.891 175.101L109.036 174.796L109.137 173.768ZM122.667 170.44L119.634 175.774L119.57 178.391L118.034 178.353L118.085 175.787L115.217 170.275L116.778 170.313L118.885 174.123L121.119 170.402L122.667 170.44V170.44ZM128.823 178.276L128.074 176.6L124.165 176.689L123.492 178.403L121.905 178.442L125.244 170.351L126.83 170.313L130.473 178.251L128.823 178.289V178.276ZM124.685 175.355L127.503 175.292L126.03 171.952L124.685 175.355ZM130.612 170.085L132.135 169.919L132.491 173.323L136.463 172.904L136.108 169.5L137.631 169.335L138.456 177.311L136.933 177.464L136.603 174.225L132.63 174.644L132.96 177.883L131.437 178.035L130.612 170.059V170.085ZM146.249 175.927L145.234 174.403L141.388 175.139L141.007 176.943L139.446 177.248L141.375 168.713L142.936 168.408L147.861 175.622L146.249 175.94V175.927ZM141.68 173.742L144.447 173.209L142.441 170.173L141.68 173.755V173.742ZM149.879 166.871C150.856 166.605 151.668 166.63 152.328 166.948C152.988 167.265 153.433 167.849 153.674 168.688C153.915 169.577 153.839 170.326 153.433 170.961C153.039 171.596 152.354 172.053 151.377 172.32L149.688 172.79L150.31 175.063L148.825 175.47L146.706 167.735L149.879 166.859V166.871ZM150.945 171.05C151.503 170.897 151.897 170.656 152.125 170.326C152.354 169.996 152.405 169.602 152.278 169.119C152.151 168.649 151.897 168.332 151.542 168.18C151.173 168.027 150.717 168.027 150.158 168.18L148.546 168.624L149.333 171.482L150.945 171.037V171.05ZM153.813 165.792L159.398 163.988L159.804 165.258L155.679 166.592L156.288 168.472L159.994 167.278L160.401 168.548L156.695 169.742L157.316 171.659L161.581 170.288L161.987 171.558L156.276 173.412L153.813 165.779V165.792ZM156.377 162.439L157.913 162.553L156.885 164.128L155.755 164.369L156.377 162.439V162.439ZM166.67 165.398L169.272 164.179L169.704 165.119L167.102 166.338L166.67 165.398ZM173.461 157.6L174.793 156.825L178.804 163.76L177.471 164.534L173.461 157.6ZM175.466 156.546L180.974 153.028L181.711 154.171L179.604 155.517L183.183 161.118L181.876 161.956L178.296 156.355L176.19 157.702L175.453 156.559L175.466 156.546ZM190.354 156.177L188.793 155.2L185.594 157.46L185.988 159.251L184.693 160.165L182.929 151.593L184.224 150.678L191.687 155.212L190.341 156.165L190.354 156.177ZM185.29 156.076L187.587 154.45L184.503 152.507L185.29 156.076ZM185.861 149.497L190.836 145.255L191.725 146.296L189.821 147.922L194.136 152.99L192.956 153.993L188.64 148.925L186.737 150.551L185.848 149.51L185.861 149.497ZM191.28 144.747L192.397 143.693L197.906 149.51L196.789 150.564L191.28 144.747Z" fill="#FEFEFE"/>
</svg>
